<svg width="24" height="24" viewBox="0 0 24 24" fill="none" xmlns="http://www.w3.org/2000/svg">
    <path d="M1.50015 7.91424L6.91436 2.50003L5.50015 1.08582L0.0859375 6.50003L1.50015 7.91424Z" fill="black" />
    <path d="M23.9144 6.50003L18.5002 1.08582L17.0859 2.50003L22.5002 7.91424L23.9144 6.50003Z" fill="black" />
    <path
        d="M12.0002 3.00003C6.4773 3.00003 2.00015 7.47718 2.00015 13C2.00015 18.5229 6.4773 23 12.0002 23C17.523 23 22.0002 18.5229 22.0002 13C22.0002 7.47718 17.523 3.00003 12.0002 3.00003ZM17 14H13V18H11V14H7V12H11V8H13V12H17V14Z"
        fill="black" />
</svg>