<svg width="24" height="24" viewBox="0 0 24 24" fill="none" xmlns="http://www.w3.org/2000/svg">
    <path
        d="M11.9998 0.201172L11.1687 1.44358L11.1679 1.44474L11.1634 1.45144L11.1426 1.48187C11.1237 1.50953 11.0946 1.55166 11.056 1.60669C10.9787 1.71679 10.8632 1.87834 10.7141 2.07894C10.4154 2.48067 9.98384 3.03619 9.45513 3.64739C8.38358 4.88613 6.97041 6.28599 5.49901 7.13334C5.03293 7.40174 4.54289 7.49992 3.99805 7.49992H2.99805V9.49992H4.99776L5.0001 16.9995L2.99805 16.9995L2.99805 18.9995L3.99805 18.9995L3.99805 21.9995H5.99805L5.99805 18.9995H10.998L10.998 21.9995L12.998 21.9995L12.998 18.9995H17.9981L17.998 21.9995H19.998V18.9995H20.998V16.9995H18.998L18.9981 9.49992H20.998V7.49992H19.998C19.4534 7.49992 18.9634 7.40164 18.4974 7.13305C17.0267 6.28549 15.6143 4.88573 14.5433 3.64714C14.0148 3.03602 13.5835 2.4806 13.285 2.07894C13.136 1.87838 13.0206 1.71687 12.9433 1.60679C12.9047 1.55177 12.8756 1.50965 12.8567 1.482L12.836 1.45157L12.8306 1.44369L11.9998 0.201172ZM9 14C9 12.3431 10.3431 11 12 11C13.6569 11 15 12.3431 15 14V17H13V14C13 13.4477 12.5523 13 12 13C11.4477 13 11 13.4477 11 14V17H9V14Z"
        fill="black" />
</svg>