<svg width="24" height="24" viewBox="0 0 24 24" fill="none" xmlns="http://www.w3.org/2000/svg">
    <path
        d="M17.5496 2.17352C15.9218 1.51685 14.4622 1.50634 13.2018 1.97099C11.9642 2.42724 11.022 3.3031 10.3289 4.24227C9.84383 4.89959 9.54259 5.63924 9.2942 6.24915C9.25616 6.34255 9.21932 6.43301 9.18328 6.51956C8.89431 7.2137 8.62293 7.76461 8.16023 8.22735C7.70445 8.68318 7.15662 8.9543 6.46088 9.24543C6.3737 9.28191 6.28271 9.31917 6.18868 9.35769C5.57798 9.6078 4.83878 9.91054 4.17911 10.393C3.2176 11.0962 2.3273 12.0415 1.87049 13.283C1.40456 14.5492 1.43268 16.0073 2.11049 17.629C3.28814 20.4464 6.09772 22.0752 9.19493 22.3193C12.3079 22.5646 15.8055 21.4351 18.5868 18.6538C21.5333 15.7073 22.6925 12.1966 22.4019 9.09571C22.1123 6.00621 20.3674 3.31021 17.5496 2.17352ZM6.76797 11.0336C6.69968 10.9653 6.63543 10.8946 6.5752 10.8218L6.73897 10.7542C6.8376 10.7136 6.9379 10.6722 7.03996 10.6295C7.7626 10.3272 8.54495 9.96446 9.22101 9.28833C9.90424 8.60503 10.2671 7.81958 10.5681 7.09643C10.6104 6.99485 10.6513 6.8951 10.6915 6.79713C10.7211 6.72481 10.7506 6.65294 10.7797 6.58252C10.8593 6.64725 10.9364 6.71673 11.0106 6.79097C12.1822 7.96255 12.1822 9.86204 11.0106 11.0336C9.83904 12.2052 7.93954 12.2052 6.76797 11.0336Z"
        fill="black" />
</svg>