<svg width="24" height="24" viewBox="0 0 24 24" fill="none" xmlns="http://www.w3.org/2000/svg">
    <path
        d="M1 2H9C10.1947 2 11.2671 2.52375 12 3.35418C12.7329 2.52376 13.8053 2 15 2H23L23 21H22C19.0558 21 16.8608 21.2453 15.4144 21.4864C14.6911 21.6069 14.1546 21.7265 13.805 21.8139C13.6302 21.8576 13.5021 21.8933 13.4206 21.917C13.3799 21.9289 13.3508 21.9378 13.3334 21.9432L13.3162 21.9487L13.314 21.9494L13.1623 22H10.8377L10.686 21.9494L10.6847 21.949L10.6838 21.9487L10.6666 21.9432C10.6492 21.9378 10.6201 21.9289 10.5794 21.917C10.4979 21.8933 10.3698 21.8576 10.195 21.8139C9.84535 21.7265 9.30891 21.6069 8.5856 21.4864C7.13918 21.2453 4.94416 21 2 21H1L1 2ZM3 4V19.0093C5.56349 19.0572 7.53508 19.2837 8.9144 19.5136C9.69108 19.6431 10.2796 19.7735 10.68 19.8736C10.805 19.9049 10.9117 19.9332 11 19.9575V6C11 4.89543 10.1046 4 9 4H3ZM13 6V19.9575C13.0883 19.9331 13.1949 19.9049 13.32 19.8736C13.7203 19.7735 14.3089 19.6431 15.0856 19.5136C16.4649 19.2837 18.4365 19.0572 21 19.0093V4H15C13.8954 4 13 4.89543 13 6Z"
        fill="black" />
    <path
        d="M17 9.5C16.4477 9.5 16 9.94772 16 10.5V11.5H14V10.5C14 8.84315 15.3431 7.5 17 7.5C18.6569 7.5 20 8.84315 20 10.5C20 11.1761 19.8282 11.7459 19.5259 12.2099C19.2288 12.6659 18.8429 12.9631 18.4972 13.1603C18.3243 13.2589 18.1536 13.3366 18.0034 13.3975V13.75H16.0034V12.75C16.0034 12.3263 16.2481 12.0627 16.3644 11.9601C16.4836 11.855 16.6042 11.7949 16.6602 11.7683C16.7665 11.7177 16.8935 11.6738 16.9686 11.6478C16.9751 11.6455 16.9812 11.6434 16.9869 11.6414C17.1775 11.5751 17.3462 11.5143 17.5062 11.423C17.6597 11.3355 17.7729 11.2368 17.8501 11.1182C17.9223 11.0075 18 10.8239 18 10.5C18 9.94772 17.5523 9.5 17 9.5ZM16 14.5H18.0039V16.5039H16V14.5Z"
        fill="black" />
</svg>