<svg width="24" height="24" viewBox="0 0 24 24" fill="none" xmlns="http://www.w3.org/2000/svg">
<path d="M0 1H4.7638L7.7638 12H18.2792L21.3675 2.73509L23.2649 3.36754L19.7208 14H7.78078L7.28078 16H22V18H4.71922L5.96648 13.011L3.2362 3H0V1ZM14 2V5H17V7H14V10H12V7H9V5H12V2H14ZM4 21C4 19.8954 4.89543 19 6 19C7.10457 19 8 19.8954 8 21C8 22.1046 7.10457 23 6 23C4.89543 23 4 22.1046 4 21ZM18 21C18 19.8954 18.8954 19 20 19C21.1046 19 22 19.8954 22 21C22 22.1046 21.1046 23 20 23C18.8954 23 18 22.1046 18 21Z" fill="black"/>
</svg>
