<svg width="24" height="24" viewBox="0 0 24 24" fill="none" xmlns="http://www.w3.org/2000/svg">
    <path d="M13 1V2.08296C15.8377 2.55904 18 5.027 18 8H6C6 5.027 8.16229 2.55904 11 2.08296V1H13Z" fill="black" />
    <path
        d="M22 8H2V12.8365C2.75589 12.3092 3.67517 12 4.66667 12C6.15398 12 7.47878 12.6958 8.33333 13.7796C9.18789 12.6958 10.5127 12 12 12C13.4873 12 14.8121 12.6958 15.6667 13.7796C16.5212 12.6958 17.846 12 19.3333 12C20.3248 12 21.2441 12.3092 22 12.8365V8Z"
        fill="black" />
    <path d="M22 16.6634C21.9983 15.1922 20.805 14 19.3333 14C17.8606 14 16.6667 15.1939 16.6667 16.6667V22H22V16.6634Z"
        fill="black" />
    <path
        d="M14.6667 22V16.6667C14.6667 15.1939 13.4728 14 12 14C10.5272 14 9.33333 15.1939 9.33333 16.6667V22H14.6667Z"
        fill="black" />
    <path d="M7.33333 22V16.6667C7.33333 15.1939 6.13943 14 4.66667 14C3.19391 14 2 15.1939 2 16.6667V22H7.33333Z"
        fill="black" />
</svg>