<svg width="24" height="24" viewBox="0 0 24 24" fill="none" xmlns="http://www.w3.org/2000/svg">
    <path
        d="M12.9995 1.04492V7.61152C14.6821 7.99311 16.0066 9.31749 16.3885 10.9999H22.9551C22.4795 5.72273 18.2768 1.52025 12.9995 1.04492Z"
        fill="black" />
    <path d="M22.9995 11.8954V12.1049C22.9998 12.07 23 12.0351 23 12.0001C23 11.9652 22.9998 11.9303 22.9995 11.8954Z"
        fill="black" />
    <path
        d="M22.9552 12.9999H16.3885C16.2745 13.5024 16.0764 13.973 15.8098 14.396L20.4531 19.0393C21.8432 17.3719 22.7491 15.2868 22.9552 12.9999Z"
        fill="black" />
    <path d="M19.8501 19.7057L19.7056 19.8502C19.7542 19.8025 19.8024 19.7543 19.8501 19.7057Z" fill="black" />
    <path
        d="M19.0389 20.4535L14.3955 15.8102C13.7019 16.2473 12.8805 16.5001 12 16.5001C9.51472 16.5001 7.5 14.4854 7.5 12.0001C7.5 9.85871 8.99577 8.06665 10.9995 7.61174V1.04501C5.39324 1.55047 1 6.26225 1 12.0001C1 18.0753 5.92487 23.0001 12 23.0001C14.6774 23.0001 17.1314 22.0436 19.0389 20.4535Z"
        fill="black" />
</svg>