<svg width="24" height="24" viewBox="0 0 24 24" fill="none" xmlns="http://www.w3.org/2000/svg">
    <path
        d="M7.18288 5.63177C7.42679 5.23482 7.71243 4.86457 8.02888 4.53174C8.10141 3.92666 8.31948 3.19189 8.78834 2.5407C9.42374 1.6582 10.474 1 11.9999 1C13.5258 1 14.576 1.6582 15.2114 2.54068C15.6803 3.19188 15.8984 3.92665 15.9709 4.53174C16.2996 4.87738 16.5877 5.24271 16.8299 5.62865C16.8941 5.61319 16.9614 5.59755 17.0315 5.582C17.601 5.45558 18.3919 5.32563 19.2074 5.34463C20.0064 5.36326 20.9561 5.52754 21.7246 6.11098C22.5464 6.73485 22.9999 7.7121 22.9999 8.99996C22.9999 10.1247 22.4677 11.0732 21.8117 11.8154C21.1553 12.5579 20.3106 13.1697 19.5154 13.648C18.832 14.0591 18.1538 14.3902 17.6032 14.6343L17.6406 14.6875C18.1081 15.3549 18.689 16.2964 19.0203 17.2799C19.3396 18.2281 19.5163 19.4976 18.731 20.539C18.0168 21.4862 16.7395 21.9295 15.0184 21.9919C14.3225 22.6306 13.3175 23 12 23C10.6825 23 9.67746 22.6306 8.98153 21.9919C7.26048 21.9295 5.98315 21.4862 5.26892 20.539C4.48365 19.4976 4.66031 18.2281 4.97967 17.2799C5.31089 16.2964 5.89188 15.3549 6.35934 14.6875L6.39676 14.6343C5.84611 14.3902 5.16796 14.0591 4.48452 13.648C3.68933 13.1697 2.8446 12.5579 2.18826 11.8154C1.5322 11.0732 1 10.1247 1 8.99996C1 7.7121 1.4535 6.73485 2.27531 6.11098C3.04388 5.52754 3.99355 5.36326 4.79255 5.34463C5.60799 5.32563 6.39892 5.45558 6.96844 5.582C7.04323 5.5986 7.11484 5.61528 7.18288 5.63177ZM11 12.3032C11.5596 12.7039 12 13 12 13C12 13 12.4403 12.7039 13 12.3032V10.4142L15.4142 8.00001L14 6.58579L13 7.5858V5H11V7.58579L10 6.58579L8.58579 8L11 10.4142V12.3032ZM8.07108 12.5219C7.02902 11.5133 6.3113 10.3259 6.29331 8.71404L4.79231 7.60112L3.60112 9.20769L8.07108 12.5219ZM17.7064 8.71421C17.6874 10.3248 16.9644 11.5177 15.9187 12.5295L20.3988 9.20769L19.2076 7.60112L17.7064 8.71421ZM9.29386 15.592L8.36403 15.336C8.25467 15.478 8.12941 15.6465 7.9975 15.8348C7.5718 16.4426 7.11648 17.2014 6.87506 17.9182C6.62179 18.6702 6.6895 19.101 6.86581 19.3349C6.9849 19.4928 7.26835 19.7172 7.90863 19.8606C7.82567 19.2109 7.91147 18.6032 8.05128 18.1837C8.12427 17.9648 8.28923 17.6091 8.45505 17.2649C8.63287 16.8957 8.8493 16.4638 9.05725 16.0548C9.13797 15.8961 9.21773 15.7402 9.29386 15.592ZM10.2569 18.1329C10.0761 18.5081 9.97337 18.742 9.94864 18.8162C9.89802 18.9681 9.85356 19.2458 9.88699 19.5594C9.91968 19.866 10.0203 20.1506 10.1997 20.3747C10.4259 20.6574 10.9051 21 12 21C13.0948 21 13.574 20.6574 13.8003 20.3747C13.9797 20.1506 14.0803 19.866 14.1129 19.5594C14.1464 19.2458 14.1019 18.9681 14.0513 18.8162C14.0266 18.742 13.9238 18.5081 13.7431 18.1329C13.2901 17.1927 12.8082 16.2659 12.3225 15.3423L12 14.3208L11.6774 15.3423C11.1925 16.2663 10.7098 17.1926 10.2569 18.1329ZM15.6359 15.336L14.7061 15.592C14.7822 15.7402 14.862 15.8961 14.9427 16.0548C15.1506 16.4638 15.3671 16.8957 15.5449 17.2649C15.7107 17.6091 15.8757 17.9648 15.9487 18.1837C16.0885 18.6032 16.1743 19.2109 16.0913 19.8606C16.7316 19.7172 17.015 19.4928 17.1341 19.3349C17.3104 19.101 17.3781 18.6702 17.1249 17.9182C16.8835 17.2014 16.4281 16.4426 16.0024 15.8348C15.8705 15.6465 15.7453 15.478 15.6359 15.336Z"
        fill="black" />
</svg>