<svg width="24" height="24" viewBox="0 0 24 24" fill="none" xmlns="http://www.w3.org/2000/svg">
<g id="&#230;&#173;&#170;&#229;&#152;&#180;&#231;&#172;&#145;-crooked-smile">
<g id="Union">
<path d="M12 3C7.02944 3 3 7.02944 3 12C3 16.9706 7.02944 21 12 21C16.9706 21 21 16.9706 21 12C21 7.02944 16.9706 3 12 3ZM1 12C1 5.92487 5.92487 1 12 1C18.0751 1 23 5.92487 23 12C23 18.0751 18.0751 23 12 23C5.92487 23 1 18.0751 1 12ZM9 8V12H7V8H9ZM17 8V12H15V8H17ZM16.7177 13.7808L16.4684 14.7493C16.1994 15.7946 15.6749 16.6446 14.8547 17.217C14.0487 17.7795 13.063 18 12 18H11V16H12C12.8008 16 13.3431 15.8331 13.7101 15.5769C14.063 15.3307 14.3566 14.9306 14.5316 14.2507L14.7808 13.2823L16.7177 13.7808Z" fill="black"/>
</g>
</g>
</svg>
