<svg width="24" height="24" viewBox="0 0 24 24" fill="none" xmlns="http://www.w3.org/2000/svg">
<g id="&#229;&#164;&#167;&#229;&#147;&#173;-cry-loudly">
<g id="Union">
<path d="M12 3C7.02944 3 3 7.02944 3 12C3 16.9706 7.02944 21 12 21C16.9706 21 21 16.9706 21 12C21 7.02944 16.9706 3 12 3ZM1 12C1 5.92487 5.92487 1 12 1C18.0751 1 23 5.92487 23 12C23 18.0751 18.0751 23 12 23C5.92487 23 1 18.0751 1 12ZM6 9H10V11H9V15H7V11H6V9ZM14 9H18V11H17V15H15V11H14V9ZM13 13V16H11V13H13Z" fill="black"/>
</g>
</g>
</svg>
