<svg width="24" height="24" viewBox="0 0 24 24" fill="none" xmlns="http://www.w3.org/2000/svg">
    <path
        d="M8 12C8 9.79086 9.79086 8 12 8C14.2091 8 16 9.79086 16 12C16 14.2091 14.2091 16 12 16C9.79086 16 8 14.2091 8 12ZM12 10C10.8954 10 10 10.8954 10 12C10 13.1046 10.8954 14 12 14C13.1046 14 14 13.1046 14 12C14 10.8954 13.1046 10 12 10Z"
        fill="black" />
    <path
        d="M22 2V22H2V2H22ZM12 6C8.68629 6 6 8.68629 6 12C6 15.3137 8.68629 18 12 18C15.3137 18 18 15.3137 18 12C18 8.68629 15.3137 6 12 6Z"
        fill="black" />
</svg>