<svg width="24" height="24" viewBox="0 0 24 24" fill="none" xmlns="http://www.w3.org/2000/svg">
    <path
        d="M12 23C5.92487 23 1 18.0751 1 12C1 5.92487 5.92487 1 12 1C18.0751 1 23 5.92487 23 12C23 18.0751 18.0751 23 12 23ZM8 9.5V8.5H6V9.5C6 10.8807 7.11929 12 8.5 12C9.88071 12 11 10.8807 11 9.5V8.5H9V9.5C9 9.77614 8.77614 10 8.5 10C8.22386 10 8 9.77614 8 9.5ZM15 9.5V8.5H13V9.5C13 10.8807 14.1193 12 15.5 12C16.8807 12 18 10.8807 18 9.5V8.5H16V9.5C16 9.77614 15.7761 10 15.5 10C15.2239 10 15 9.77614 15 9.5ZM9.40076 14.4993L8.90004 13.6337L7.16882 14.6351L7.66955 15.5007C8.53256 16.9926 10.1481 18 12 18C13.852 18 15.4675 16.9926 16.3305 15.5007L16.8312 14.6351L15.1 13.6337L14.5993 14.4993C14.0791 15.3986 13.1092 16 12 16C10.8909 16 9.92099 15.3986 9.40076 14.4993Z"
        fill="black" />
</svg>