<svg width="24" height="24" viewBox="0 0 24 24" fill="none" xmlns="http://www.w3.org/2000/svg">
    <path
        d="M3 1H13V9H21V23H3V1ZM15 13.6465L15 12L13 12L13 13.6465L12 14.6108L11 13.6465L11 12L9 12L9.00001 13.6465C9.00001 14.1896 9.22083 14.7093 9.61173 15.0862L10.5594 16L9.61173 16.9138C9.22083 17.2907 9.00001 17.8104 9.00001 18.3535L9.00001 20L11 20L11 18.3535L12 17.3892L13 18.3535L13 20H15V18.3535C15 17.8104 14.7792 17.2907 14.3883 16.9138L13.4406 16L14.3883 15.0862C14.7792 14.7093 15 14.1896 15 13.6465Z"
        fill="black" />
    <path d="M21 6.58579V7H15V1H15.4142L21 6.58579Z" fill="black" />
</svg>