<svg width="24" height="24" viewBox="0 0 24 24" fill="none" xmlns="http://www.w3.org/2000/svg">
    <path
        d="M13 1H3V23H13.8464C12.4127 21.8077 11.5 20.0104 11.5 18C11.5 14.4101 14.4101 11.5 18 11.5C19.0821 11.5 20.1025 11.7644 21 12.2322V9H13V1Z"
        fill="black" />
    <path d="M21 7V6.58579L15.4142 1H15V7H21Z" fill="black" />
    <path
        d="M18.9999 14.126V12.75H16.9999V14.126C16.285 14.31 15.6474 14.6867 15.1458 15.1975L13.9533 14.509L12.9533 16.241L14.1449 16.929C14.0504 17.2699 13.9999 17.629 13.9999 18C13.9999 18.371 14.0504 18.7301 14.1449 19.071L12.9533 19.759L13.9533 21.491L15.1458 20.8025C15.6474 21.3133 16.285 21.69 16.9999 21.874V23.25H18.9999V21.874C19.7149 21.69 20.3525 21.3133 20.854 20.8025L22.0466 21.491L23.0466 19.759L21.8549 19.071C21.9494 18.7301 21.9999 18.371 21.9999 18C21.9999 17.629 21.9494 17.2699 21.8549 16.929L23.0466 16.241L22.0466 14.509L20.854 15.1975C20.3525 14.6867 19.7149 14.31 18.9999 14.126ZM16.2852 16.97C16.6351 16.3888 17.2721 16 17.9999 16C18.7278 16 19.3648 16.3888 19.7147 16.97L19.7512 17.0332C19.9097 17.3197 19.9999 17.6493 19.9999 18C19.9999 18.3507 19.9097 18.6802 19.7512 18.9668L19.7147 19.03C19.3648 19.6112 18.7278 20 17.9999 20C17.2721 20 16.6351 19.6112 16.2852 19.03L16.2487 18.9667C16.0902 18.6802 15.9999 18.3506 15.9999 18C15.9999 17.6494 16.0902 17.3198 16.2487 17.0333L16.2852 16.97Z"
        fill="black" />
</svg>