<svg width="24" height="24" viewBox="0 0 24 24" fill="none" xmlns="http://www.w3.org/2000/svg">
    <path
        d="M4.79575 16.2884L6.08705 15.0001L4.79575 13.7115L6.20847 12.2958L8.91859 15.0002L6.20835 17.7043L4.79575 16.2884Z"
        fill="black" />
    <path
        d="M0 3H7.41421L11 6.58579V3H16V11H24V21H0V3ZM11 19V11H5V5H2V19H11ZM7 5.41421V9H10.5858L7 5.41421ZM19.2041 16.2883L17.9128 14.9999L19.2041 13.7113L17.7914 12.2956L15.0813 15L17.7915 17.7041L19.2041 16.2883Z"
        fill="black" />
    <path d="M24 9V8.58579L18.4142 3H18V9H24Z" fill="black" />
</svg>