<svg width="24" height="24" viewBox="0 0 24 24" fill="none" xmlns="http://www.w3.org/2000/svg">
    <path
        d="M13 1H3V23H5V13.5H10V13.6449C10.3169 13.5506 10.6525 13.5 11 13.5H14V13.6449C14.3169 13.5506 14.6525 13.5 15 13.5H16C16.3475 13.5 16.6831 13.5506 17 13.6449V13.5H21V9H13V1Z"
        fill="black" />
    <path d="M21 7V6.58579L15.4142 1H15V7H21Z" fill="black" />
    <path d="M8.5 23V15H6.5V23H8.5Z" fill="black" />
    <path d="M11 15C9.89545 15 9.00002 15.8954 9.00002 17V21C9.00002 22.1046 9.89545 23 11 23H12.5V21H11V17H12.5V15H11Z"
        fill="black" />
    <path
        d="M15 15C13.8954 15 13 15.8954 13 17V21C13 22.1046 13.8954 23 15 23H16C17.1046 23 18 22.1046 18 21V17C18 15.8954 17.1046 15 16 15H15ZM15 21V17H16V21H15Z"
        fill="black" />
    <path d="M21.5 15H18.5V23H20.5V17H21.5V23H23.5V17C23.5 15.8954 22.6046 15 21.5 15Z" fill="black" />
</svg>