<svg width="24" height="24" viewBox="0 0 24 24" fill="none" xmlns="http://www.w3.org/2000/svg">
    <path
        d="M13 1H3V23H5V13.5H11.2143C11.4904 13.5 11.755 13.5489 12 13.6386V13.5H15.7143C16.3055 13.5 16.8442 13.7244 17.25 14.0927C17.6558 13.7244 18.1945 13.5 18.7857 13.5H21V9H13V1Z"
        fill="black" />
    <path d="M21 7V6.58579L15.4142 1H15V7H21Z" fill="black" />
    <path
        d="M10.2143 15H6.5V23H8.5V20H10.2143C10.9244 20 11.5 19.4244 11.5 18.7143V16.2857C11.5 15.5756 10.9244 15 10.2143 15ZM9.5 18H8.5V17H9.5V18Z"
        fill="black" />
    <path
        d="M15.7143 15H12V23H15.7143C16.4244 23 17 22.4244 17 21.7143V16.2857C17 15.5756 16.4244 15 15.7143 15ZM14 21V17H15V21H14Z"
        fill="black" />
    <path d="M18.7857 15C18.0756 15 17.5 15.5756 17.5 16.2857V23H19.5V20H22.1667V18H19.5V17H22.1667V15H18.7857Z"
        fill="black" />
</svg>