<svg width="24" height="24" viewBox="0 0 24 24" fill="none" xmlns="http://www.w3.org/2000/svg">
    <path d="M13 1H3V23H11.5V17C11.5 13.4101 14.4101 10.5 18 10.5C19.0821 10.5 20.1025 10.7644 21 11.2322V9H13V1Z"
        fill="black" />
    <path d="M21 7V6.58579L15.4142 1H15V7H21Z" fill="black" />
    <path
        d="M21.251 15.75V16.5H22.5V23H13.5V16.5H14.751V15.75C14.751 13.9551 16.2061 12.5 18.001 12.5C19.7959 12.5 21.251 13.9551 21.251 15.75ZM19.251 15.75C19.251 15.0596 18.6913 14.5 18.001 14.5C17.3106 14.5 16.751 15.0596 16.751 15.75V16.5H19.251V15.75Z"
        fill="black" />
</svg>