<svg width="24" height="24" viewBox="0 0 24 24" fill="none" xmlns="http://www.w3.org/2000/svg">
    <path d="M13 1H3V23H11.5V17C11.5 13.4101 14.4101 10.5 18 10.5C19.0821 10.5 20.1025 10.7644 21 11.2322V9H13V1Z"
        fill="black" />
    <path d="M21 7V6.58579L15.4142 1H15V7H21Z" fill="black" />
    <path
        d="M16.751 15.75C16.751 15.0596 17.3106 14.5 18.001 14.5C18.3451 14.5 18.6551 14.6377 18.8821 14.8634L19.5914 15.5683L21.0013 14.1498L20.292 13.4448C19.7055 12.8619 18.8945 12.5 18.001 12.5C16.2061 12.5 14.751 13.9551 14.751 15.75V16.5H13.5V23H22.5V16.5H16.751V15.75Z"
        fill="black" />
</svg>