<svg width="24" height="24" viewBox="0 0 24 24" fill="none" xmlns="http://www.w3.org/2000/svg">
    <path
        d="M13 1H3V23H13.101C11.8045 21.7295 11 19.9587 11 18C11 14.134 14.134 11 18 11C19.0736 11 20.0907 11.2417 21 11.6736V9H13V1Z"
        fill="black" />
    <path d="M21 7V6.58579L15.4142 1H15V7H21Z" fill="black" />
    <path
        d="M18 12.5C14.9624 12.5 12.5 14.9624 12.5 18C12.5 19.5184 13.1167 20.8948 14.1108 21.889C15.105 22.8832 16.4814 23.5 18 23.5C21.0376 23.5 23.5 21.0376 23.5 18C23.5 16.4816 22.8833 15.1052 21.8892 14.111C20.895 13.1168 19.5186 12.5 18 12.5ZM14.5 18C14.5 16.067 16.067 14.5 18 14.5C18.6032 14.5 19.1701 14.6521 19.6654 14.9206L14.9205 19.6652C14.652 19.17 14.5 18.6031 14.5 18ZM16.3346 21.0794L21.0795 16.3348C21.348 16.83 21.5 17.3969 21.5 18C21.5 19.933 19.933 21.5 18 21.5C17.3968 21.5 16.8299 21.3479 16.3346 21.0794Z"
        fill="black" />
</svg>