<svg width="24" height="24" viewBox="0 0 24 24" fill="none" xmlns="http://www.w3.org/2000/svg">
    <path
        d="M12 23C5.92487 23 1 18.0751 1 12C1 5.92487 5.92487 1 12 1C18.0751 1 23 5.92487 23 12C23 18.0751 18.0751 23 12 23ZM12 6C10.1481 6 8.53257 7.00738 7.66955 8.49927L7.16883 9.36488L8.90004 10.3663L9.40076 9.50073C9.92099 8.60142 10.8909 8 12 8C13.1092 8 14.0791 8.60141 14.5993 9.50073L15.1 10.3663L16.8312 9.36488L16.3305 8.49927C15.4675 7.00738 13.852 6 12 6ZM9 16V12H7V16H9ZM17 16V12H15V16H17Z"
        fill="black" />
</svg>