<svg width="24" height="24" viewBox="0 0 24 24" fill="none" xmlns="http://www.w3.org/2000/svg">
    <path
        d="M19.5 1C17.567 1 16 2.567 16 4.5C16 6.08551 17.0543 7.42479 18.5 7.85506V9.99996C18.5 10.5522 18.0523 11 17.5 11H6.5C5.94772 11 5.5 10.5522 5.5 9.99996L5.5 7.85506C6.94574 7.42479 8 6.08551 8 4.5C8 2.567 6.433 1 4.5 1C2.567 1 1 2.567 1 4.5C1 6.08551 2.05425 7.42479 3.5 7.85506V9.99996C3.5 11.6568 4.84315 13 6.5 13H11L11 16.1449C9.55426 16.5752 8.5 17.9145 8.5 19.5C8.5 21.433 10.067 23 12 23C13.933 23 15.5 21.433 15.5 19.5C15.5 17.9145 14.4457 16.5752 13 16.1449L13 13H17.5C19.1569 13 20.5 11.6568 20.5 9.99996V7.85506C21.9457 7.42479 23 6.08551 23 4.5C23 2.567 21.433 1 19.5 1Z"
        fill="black" />
</svg>