<svg width="24" height="24" viewBox="0 0 24 24" fill="none" xmlns="http://www.w3.org/2000/svg">
    <path
        d="M21.0001 4.52967L17.4646 0.994141L15.3432 3.11546L13.2219 0.994141L9.31493 4.90115L7.8009 3.38712L4.79958 8.39001L15.6098 19.2002L20.6122 16.1984L19.2144 14.8006L22.4143 11.6007L20.293 9.47942L22.4143 7.3581L20.293 5.23678L21.0001 4.52967ZM13.5576 9.14379L12.8505 8.43668L17.4646 3.82257L18.1717 4.52968L13.5576 9.14379ZM14.9718 10.558L18.8788 6.651L19.5859 7.3581L15.6789 11.2651L14.9718 10.558ZM17.8002 13.3864L17.0931 12.6793L18.8788 10.8936L19.5859 11.6007L17.8002 13.3864ZM11.4362 7.02247L10.7291 6.31536L13.2219 3.82257L13.929 4.52968L11.4362 7.02247Z"
        fill="black" />
    <path d="M13.8421 20.261L3.73901 10.1579L0.740967 15.1553L8.84514 23.2595L13.8421 20.261Z" fill="black" />
</svg>