<svg width="24" height="24" viewBox="0 0 24 24" fill="none" xmlns="http://www.w3.org/2000/svg">
    <path
        d="M14.6488 2.00005V0.195801L8.5 4.15756C8.93879 4.7735 9.19161 5.47283 9.30843 6.20754C9.58723 7.96087 9.0912 9.91567 8.49976 11.4197C6.20884 16.4663 6.45993 20.5529 8.94494 22.2446C9.15608 22.3883 9.39476 22.5204 9.66348 22.6324C9.6635 22.6324 9.66346 22.6324 9.66348 22.6324C10.1991 22.8559 10.8541 23.0001 11.6483 23.0001C14.726 23.0001 16.3615 20.4924 15.8945 17.5734C15.7073 16.4037 15.2655 15.3468 14.8631 14.384C14.2612 12.944 13.7472 11.7145 14.3048 10.6332C14.3804 10.4866 14.4502 10.3434 14.5146 10.2039C14.1987 11.8326 14.9066 12.8259 15.7558 14.0177C16.3497 14.8511 17.0128 15.7815 17.4431 17.094C18.1804 19.3425 17.7248 21.5241 16.2934 22.8886C18.4071 22.9856 20.0409 22.4469 21.1924 21.391C22.7392 19.9726 23.1517 17.8587 22.9493 15.943C22.6458 13.0706 20.4209 10.461 18.5388 8.78656C16.4195 6.90099 14.6488 5.30194 14.6488 2.00005Z"
        fill="black" />
    <path
        d="M7.27505 8.47933C6.89071 8.76038 6.50031 9.01684 6.08574 9.28918C5.71968 9.52965 5.33466 9.78259 4.91847 10.0757C3.95772 10.7522 2.96562 11.5631 2.22137 12.6798C1.46396 13.8161 0.999927 15.2125 1 17.0016C1.00013 20.1022 2.73113 22.9998 6.64811 22.9998C6.69013 22.9998 6.73179 22.9997 6.77313 22.9993C5.58863 21.7228 5.01885 20.0103 4.93355 18.1835C4.82788 15.9204 5.44163 13.333 6.65623 10.6425C6.92067 9.96276 7.14678 9.21724 7.27505 8.47933Z"
        fill="black" />
</svg>