<svg width="24" height="24" viewBox="0 0 24 24" fill="none" xmlns="http://www.w3.org/2000/svg">
    <path
        d="M7.75011 20C7.75011 21.3807 8.8694 22.5 10.2501 22.5C11.6308 22.5 12.7501 21.3807 12.7501 20V16H14.7094C15.2406 16 15.7622 15.859 16.221 15.5913L20.3506 13.1824C21.5771 12.4669 22.134 10.9895 21.685 9.64242L19.6546 3.55132C19.2463 2.32629 18.0999 1.5 16.8086 1.5H8.73492C7.80351 1.5 6.92493 1.93261 6.35705 2.67087L1.52051 8.95837L2.54659 10.4975C2.99614 11.1718 3.80821 11.5082 4.60292 11.3492L7.75011 10.7198V20Z"
        fill="black" />
</svg>