<svg width="24" height="24" viewBox="0 0 24 24" fill="none" xmlns="http://www.w3.org/2000/svg">
    <path
        d="M7.03637 4.98667C6.86149 4.81188 6.57888 4.80914 6.40064 4.98054C6.2642 5.11174 6.22498 5.31208 6.29589 5.48203C6.35724 5.62905 6.44097 5.76638 6.50707 5.91134L8.467 9.91512L6.30851 14.5686L9.9516 15.6838L10.9537 9.7102L10.9635 9.67151C10.9913 9.56057 10.9993 9.49221 11 9.45107C11 9.44674 11 9.4424 11 9.43805C10.9998 9.42894 10.9993 9.42155 10.9985 9.4156C10.9559 9.07261 10.8002 8.7514 10.5533 8.50447L7.03637 4.98667C7.03634 4.98664 7.0364 4.9867 7.03637 4.98667ZM9.61785 17.6733L4.76887 16.1889L4 16.189L4 19.1462L9.37078 19.1461L9.61785 17.6733ZM4.27993 14.189L6.25157 9.9383L4.69677 6.76213C4.61945 6.58981 4.5229 6.42661 4.45013 6.25221C4.06625 5.33222 4.27432 4.25057 5.01435 3.53894C5.97781 2.61246 7.50552 2.62739 8.45067 3.57254L11.9675 7.09026C11.9675 7.09028 11.9675 7.09023 11.9675 7.09026C11.9784 7.10113 11.9893 7.11216 12 7.12316C12.0107 7.11216 12.0215 7.10122 12.0324 7.09034C12.0324 7.09031 12.0324 7.09037 12.0324 7.09034L15.5492 3.57263C16.4944 2.62748 18.0222 2.61246 18.9856 3.53894C19.7257 4.25057 19.9337 5.33222 19.5499 6.25221C19.4771 6.42661 19.3806 6.58981 19.3032 6.76213L17.7484 9.9383L19.7201 14.189L22 14.1892V21.1463L12.9368 21.146L12 15.5619L11.0632 21.146L2 21.1463L2 14.1892L4.27993 14.189ZM13 9.45107C13.0007 9.4922 13.0087 9.56056 13.0365 9.67151L13.0463 9.7102L14.0484 15.6838L17.6915 14.5686L15.533 9.91512L17.4929 5.91132C17.559 5.76637 17.6428 5.62904 17.7041 5.48203C17.775 5.31208 17.7358 5.11174 17.5994 4.98054C17.4211 4.80914 17.1385 4.81188 16.9636 4.98667C16.9636 4.9867 16.9637 4.98664 16.9636 4.98667L13.4468 8.50438C13.1998 8.75132 13.0441 9.07261 13.0015 9.4156C13.0007 9.42155 13.0002 9.42895 13 9.43806M19.2311 16.1889L14.3821 17.6733L14.6292 19.1461L20 19.1462V16.189L19.2311 16.1889Z"
        fill="black" />
</svg>