<svg width="24" height="24" viewBox="0 0 24 24" fill="none" xmlns="http://www.w3.org/2000/svg">
    <path
        d="M17.5 7C17.5 7.90672 17.3143 8.77007 16.979 9.55412C16.3475 9.20375 15.6368 9.01952 14.9137 9.01952H14.7599V7.07006C14.7599 4.99347 13.0765 3.31006 10.9999 3.31006C8.92326 3.31006 7.23986 4.99347 7.23986 7.07006V12.3027C5.58179 11.1248 4.5 9.18872 4.5 7C4.5 3.41015 7.41015 0.5 11 0.5C14.5899 0.5 17.5 3.41015 17.5 7Z"
        fill="black" />
    <path
        d="M14.9137 10.5195C15.3752 10.5195 15.8289 10.6354 16.2333 10.8559C16.2568 10.8687 16.2802 10.8819 16.3033 10.8954L19.928 13.0111C21.0545 13.6687 21.566 15.0257 21.1538 16.2632L19.3714 21.6138C18.9963 22.7397 17.9427 23.4993 16.7559 23.4993H9.67042C8.81424 23.4993 8.00666 23.1014 7.48485 22.4227L3.18652 16.8314L4.13607 15.4062C4.55733 14.7739 5.31798 14.4577 6.06333 14.6049L8.73986 15.1337V7.07006C8.73986 5.8219 9.75169 4.81006 10.9999 4.81006C12.248 4.81006 13.2599 5.8219 13.2599 7.07006V10.5195H14.9137Z"
        fill="black" />
</svg>