<svg width="24" height="24" viewBox="0 0 24 24" fill="none" xmlns="http://www.w3.org/2000/svg">
    <path
        d="M2 18C2 19.933 3.567 21.5 5.5 21.5C7.433 21.5 9 19.933 9 18C9 16.4761 8.02611 15.1797 6.66677 14.6992C6.97558 13.9933 7.68018 13.5 8.5 13.5H15.5C17.7091 13.5 19.5 11.7091 19.5 9.5V9.35506C20.9457 8.92479 22 7.58551 22 6C22 4.067 20.433 2.5 18.5 2.5C16.567 2.5 15 4.067 15 6C15 7.58551 16.0543 8.92479 17.5 9.35506V9.5C17.5 10.6046 16.6046 11.5 15.5 11.5H8.5C7.77143 11.5 7.08835 11.6948 6.5 12.0351V9.35506C7.94574 8.92479 9 7.58551 9 6C9 4.067 7.433 2.5 5.5 2.5C3.567 2.5 2 4.067 2 6C2 7.58551 3.05426 8.92479 4.5 9.35506V14.6449C3.05426 15.0752 2 16.4145 2 18Z"
        fill="black" />
</svg>