<svg width="24" height="24" viewBox="0 0 24 24" fill="none" xmlns="http://www.w3.org/2000/svg">
    <path
        d="M17.9995 7V10.5H20.4995V22H3.49951V10.5H5.99951V7C5.99951 3.68629 8.6858 1 11.9995 1C15.3132 1 17.9995 3.68629 17.9995 7ZM7.99951 7V10.5H15.9995V7C15.9995 4.79086 14.2087 3 11.9995 3C9.79037 3 7.99951 4.79086 7.99951 7ZM11.9995 14.25C10.8949 14.25 9.99951 15.1454 9.99951 16.25C9.99951 17.3546 10.8949 18.25 11.9995 18.25C13.1041 18.25 13.9995 17.3546 13.9995 16.25C13.9995 15.1454 13.1041 14.25 11.9995 14.25Z"
        fill="black" />
</svg>