<svg width="24" height="24" viewBox="0 0 24 24" fill="none" xmlns="http://www.w3.org/2000/svg">
    <path
        d="M10.1145 21.8111C10.7214 22.3105 11.3529 22.7684 12 23.2136C12.6472 22.7686 13.2782 22.3109 13.8854 21.8112C14.6614 21.1727 15.6981 20.2496 16.738 19.1123C18.7821 16.8765 21 13.6373 21 10C21 5.02944 16.9706 1 12 1C7.02944 1 3 5.02944 3 10C3 13.637 5.2179 16.8762 7.26196 19.112C8.30183 20.2494 9.33859 21.1725 10.1145 21.8111ZM12 13.25C10.2051 13.25 8.75 11.7949 8.75 10C8.75 8.20507 10.2051 6.75 12 6.75C13.7949 6.75 15.25 8.20507 15.25 10C15.25 11.7949 13.7949 13.25 12 13.25Z"
        fill="black" />
</svg>