<svg xmlns="http://www.w3.org/2000/svg" width="24" height="24" viewBox="0 0 24 24" fill="none">
    <path fill-rule="evenodd" clip-rule="evenodd"
        d="M12 3C9.79086 3 8 4.79086 8 7V10H20.5V22H3.5V10H6V7C6 3.68629 8.68629 1 12 1C14.4619 1 16.5754 2.48263 17.5003 4.59963C17.5855 4.79465 17.6607 4.99511 17.7251 5.20035L18.0248 6.1544L16.1167 6.7537L15.817 5.79965C15.7742 5.66329 15.7243 5.53006 15.6676 5.40037C15.0494 3.98556 13.6387 3 12 3ZM5.5 12V20H18.5V12H5.5ZM9 15H15V17H9V15Z"
        fill="black" />
</svg>