<svg width="24" height="24" viewBox="0 0 24 24" fill="none" xmlns="http://www.w3.org/2000/svg">
<path d="M2.33984 6.42257L12.0001 0.845215L21.6604 6.42257V17.5773L12.0001 23.1546L2.33984 17.5773V6.42257ZM12.0001 3.15462L9.66997 4.49992L12.0001 5.84521L14.3302 4.49991L12.0001 3.15462ZM16.3302 5.65461L12.0001 8.15462L7.66997 5.65462L5.33984 6.99992L12.0001 10.8452L18.6604 6.99992L16.3302 5.65461ZM19.6604 8.73197L13.0001 12.5773V20.2679L15.3398 18.917V13.9226L19.6604 11.4281L19.6604 8.73197ZM19.6604 13.7375L17.3398 15.0773V17.7623L19.6604 16.4226L19.6604 13.7375ZM4.33984 11.4281L8.66035 13.9226V18.917L11.0001 20.2679V12.5773L4.33984 8.73197V11.4281ZM4.33984 13.7375V16.4226L6.66035 17.7623V15.0773L4.33984 13.7375Z" fill="black"/>
</svg>
