<svg width="24" height="24" viewBox="0 0 24 24" fill="none" xmlns="http://www.w3.org/2000/svg">
    <path
        d="M9.456 10.7715C9.20432 10.9571 8.88312 11.0504 8.4924 11.0504L6.27304 11.0522V8.72019H8.32432C8.5144 8.71931 8.7036 8.73603 8.89016 8.76859C9.07144 8.80115 9.2316 8.85922 9.37152 8.94282C9.51144 9.02643 9.6232 9.14347 9.7068 9.29218C9.7904 9.4409 9.83264 9.63187 9.83264 9.86419C9.83352 10.2831 9.70768 10.5849 9.456 10.7715Z"
        fill="black" />
    <path
        d="M9.23248 15.2181C9.03096 15.2603 8.82504 15.2815 8.61824 15.2806L6.27304 15.2815V12.5447H8.66048C9.1348 12.5447 9.51672 12.6538 9.80536 12.8729C10.094 13.0911 10.2383 13.4572 10.2383 13.9685C10.2383 14.229 10.1934 14.4437 10.1054 14.6109C10.0166 14.7781 9.89776 14.911 9.74904 15.0087C9.60032 15.1063 9.42784 15.1759 9.23248 15.2181Z"
        fill="black" />
    <path
        d="M16.3473 10.8832C16.8313 10.8832 17.1921 11.0135 17.4297 11.2739C17.6664 11.5344 17.8318 11.9163 17.926 12.4179H14.7008C14.7096 12.2789 14.7404 12.1205 14.7914 11.9436C14.8425 11.7667 14.9305 11.5995 15.0563 11.4411C15.1822 11.2827 15.3494 11.1507 15.5588 11.0434C15.7674 10.9369 16.0305 10.8832 16.3473 10.8832Z"
        fill="black" />
    <path
        d="M23 12C23 18.0751 18.0751 23 12 23C5.92487 23 1 18.0751 1 12C1 5.92487 5.92487 1 12 1C18.0751 1 23 5.92487 23 12ZM10.0702 7.14147C9.67864 7.05787 9.24568 7.01562 8.77136 7.01562H4.08008V16.9851H8.91216C9.35216 16.986 9.79128 16.9297 10.2172 16.8179C10.6405 16.7062 11.0171 16.5346 11.348 16.3014C11.6789 16.0691 11.942 15.769 12.1374 15.4011C12.3327 15.0333 12.4304 14.5977 12.4304 14.0952C12.4304 13.4713 12.279 12.938 11.9763 12.4963C11.6736 12.0545 11.2151 11.7447 10.6009 11.5679C11.047 11.354 11.385 11.0795 11.6129 10.7442C11.8408 10.4089 11.9552 9.99003 11.9552 9.48755C11.9552 9.02203 11.8786 8.63131 11.7246 8.31451C11.5706 7.99771 11.3542 7.74427 11.0752 7.55331C10.7962 7.36235 10.4618 7.22507 10.0702 7.14147ZM16.4731 15.5041C15.9143 15.5041 15.4858 15.3598 15.1883 15.0711C14.8909 14.7834 14.7281 14.3179 14.7008 13.6781H19.9086C19.9456 13.1193 19.899 12.5843 19.7687 12.0721C19.6385 11.5599 19.4264 11.1041 19.1334 10.7037C18.8403 10.3033 18.4654 9.98475 18.0096 9.74715C17.5529 9.50955 17.0178 9.39075 16.4036 9.39075C15.8545 9.39075 15.3538 9.48843 14.9023 9.68379C14.4509 9.87914 14.0619 10.1467 13.7363 10.4863C13.4107 10.826 13.159 11.2282 12.9822 11.6937C12.8053 12.1592 12.7173 12.6617 12.7173 13.2011C12.7173 13.7591 12.8035 14.2712 12.9751 14.7367C13.1467 15.2023 13.3914 15.6018 13.7082 15.9371C14.025 16.2723 14.4113 16.5311 14.8671 16.7123C15.323 16.8936 15.8351 16.9843 16.4027 16.9843C17.222 16.9843 17.9198 16.7977 18.4971 16.4255C19.0744 16.0532 19.503 15.4346 19.7819 14.5687H18.0369C17.9718 14.7922 17.7949 15.0043 17.5062 15.204C17.2176 15.4038 16.8735 15.5041 16.4731 15.5041ZM18.3906 7.52163H14.3611V8.63923H18.3906V7.52163Z"
        fill="black" />
</svg>