<svg width="24" height="24" viewBox="0 0 24 24" fill="none" xmlns="http://www.w3.org/2000/svg">
    <path
        d="M17 10.101V6.38122L17.0342 6.41379L18.4137 4.96572L17.6897 4.27596C17.3387 3.94161 16.9582 3.63781 16.5524 3.36887C15.2472 2.5038 13.6809 2 11.9999 2C10.319 2 8.75277 2.50375 7.44758 3.36874C7.04261 3.63712 6.66284 3.94021 6.31247 4.27374L5.58817 4.96322L6.96714 6.41182L7 6.38054V10.101C5.72948 8.80447 3.95869 8 2 8H1V22H11V15H13V22H23V8H22C20.0413 8 18.2705 8.80447 17 10.101ZM3 10.1C5.28224 10.5633 7 12.581 7 15V20H3V10.1ZM21 20H17V15C17 12.581 18.7178 10.5633 21 10.1V20ZM13.0039 6.99805V9.00195H11V6.99805H13.0039Z"
        fill="black" />
</svg>