<svg width="24" height="24" viewBox="0 0 24 24" fill="none" xmlns="http://www.w3.org/2000/svg">
    <path
        d="M15 3L22 3V5H21V10L22 10V12C22 17.5228 17.5228 22 12 22C6.47715 22 2 17.5228 2 12V10L3 10C3 6.68629 5.68629 4 9 4C12.3137 4 15 6.68629 15 10L16 10V5L15 5L15 3ZM18 5V10H18.9995L19 5H18ZM5 10L6 10C6 8.34315 7.34315 7 9 7C10.6569 7 12 8.34315 12 10L13 10C13 7.79086 11.2091 6 9 6C6.79086 6 5 7.79086 5 10ZM10 10C10 9.44772 9.55228 9 9 9C8.44772 9 8 9.44772 8 10H10Z"
        fill="black" />
</svg>