<svg width="24" height="24" viewBox="0 0 24 24" fill="none" xmlns="http://www.w3.org/2000/svg">
<path d="M11.5822 20.5H9.27323L12.7458 14.4478C12.5032 14.4822 12.2551 14.5 12.0029 14.5C9.10343 14.5 6.75293 12.1495 6.75293 9.25C6.75293 6.3505 9.10344 4 12.0029 4C14.9024 4 17.2529 6.35051 17.2529 9.25C17.2529 10.0188 17.087 10.7516 16.7882 11.4122C16.6567 11.7028 16.4994 11.9794 16.3193 12.239L11.5822 20.5ZM14.9842 10.5468C15.1568 10.1508 15.2529 9.71288 15.2529 9.25C15.2529 7.45507 13.7979 6 12.0029 6C10.208 6 8.75293 7.45507 8.75293 9.25C8.75293 11.0449 10.208 12.5 12.0029 12.5C13.0812 12.5 14.0382 11.9749 14.63 11.1641L14.9842 10.5468Z" fill="black"/>
</svg>
