<svg width="24" height="24" viewBox="0 0 24 24" fill="none" xmlns="http://www.w3.org/2000/svg">
    <path
        d="M12 1C9.36545 1 7.2495 1.52703 5.78326 2.06021C5.0502 2.32677 4.47862 2.59519 4.08431 2.80092C3.88708 2.90382 3.73395 2.99117 3.62687 3.05496C3.57332 3.08686 3.53125 3.11289 3.50092 3.13205C3.48575 3.14163 3.47351 3.14949 3.46423 3.15552L3.45254 3.16316L3.44836 3.16592L3.44669 3.16702L3 3.46482V20H2V22H7V9H9V11H11V9H13V22H22V20H21V3.46482L20.5533 3.16702L20.5516 3.16592L20.5475 3.16316L20.5358 3.15552C20.5265 3.14949 20.5142 3.14163 20.4991 3.13205C20.4687 3.11289 20.4267 3.08686 20.3731 3.05496C20.2661 2.99117 20.1129 2.90382 19.9157 2.80092C19.5214 2.59519 18.9498 2.32677 18.2167 2.06021C16.7505 1.52703 14.6345 1 12 1Z"
        fill="black" />
    <path d="M11 22V20H9V22H11Z" fill="black" />
    <path d="M11 18H9V16.5H11V18Z" fill="black" />
    <path d="M11 14.5H9V13H11V14.5Z" fill="black" />
</svg>