<svg width="24" height="24" viewBox="0 0 24 24" fill="none" xmlns="http://www.w3.org/2000/svg">
    <path
        d="M12 1C18.0751 1 23 5.92489 23 12C23 12.9902 22.8692 13.9498 22.6239 14.8626C21.6561 14.0142 20.3881 13.5 19 13.5C15.9624 13.5 13.5 15.9624 13.5 19C13.5 20.3881 14.0142 21.6561 14.8626 22.6239C13.9499 22.8692 12.9902 23.0001 12 23.0001C5.92486 23.0001 1 18.0752 1 12C1 5.92489 5.92486 1 12 1ZM16.8028 11.9999L9.5 7.13135V16.8684L16.8028 11.9999Z"
        fill="black" />
    <path d="M20 18V15H18V18H15V20H18V23H20V20H23V18H20Z" fill="black" />
</svg>