<svg width="24" height="24" viewBox="0 0 24 24" fill="none" xmlns="http://www.w3.org/2000/svg">
<g id="&#229;&#174;&#137;&#232;&#175;&#166;-serenity">
<g id="Union">
<path d="M12 3C7.02944 3 3 7.02944 3 12C3 16.9706 7.02944 21 12 21C16.9706 21 21 16.9706 21 12C21 7.02944 16.9706 3 12 3ZM1 12C1 5.92487 5.92487 1 12 1C18.0751 1 23 5.92487 23 12C23 18.0751 18.0751 23 12 23C5.92487 23 1 18.0751 1 12ZM6 9H10V11H6V9ZM14 9H18V11H14V9ZM8.90004 13.6337L9.40076 14.4993C9.92099 15.3986 10.8909 16 12 16C13.1092 16 14.0791 15.3986 14.5993 14.4993L15.1 13.6337L16.8312 14.6351L16.3305 15.5007C15.4675 16.9926 13.852 18 12 18C10.1481 18 8.53256 16.9926 7.66955 15.5007L7.16882 14.6351L8.90004 13.6337Z" fill="black"/>
</g>
</g>
</svg>
