<svg width="24" height="24" viewBox="0 0 24 24" fill="none" xmlns="http://www.w3.org/2000/svg">
<g id="&#233;&#151;&#173;&#229;&#152;&#180;-shutup">
<g id="Union">
<path d="M12 3C7.02944 3 3 7.02944 3 12C3 16.9706 7.02944 21 12 21C16.9706 21 21 16.9706 21 12C21 7.02944 16.9706 3 12 3ZM1 12C1 5.92487 5.92487 1 12 1C18.0751 1 23 5.92487 23 12C23 18.0751 18.0751 23 12 23C5.92487 23 1 18.0751 1 12ZM6 9H10V11H6V9ZM14 9H18V11H14V9ZM11 12.5858L12 13.5858L13 12.5858L14.4142 14L13.4142 15L14.4142 16L13 17.4142L12 16.4142L11 17.4142L9.58579 16L10.5858 15L9.58579 14L11 12.5858Z" fill="black"/>
</g>
</g>
</svg>
