<svg width="24" height="24" viewBox="0 0 24 24" fill="none" xmlns="http://www.w3.org/2000/svg">
    <path
        d="M11 15C11 14.4477 11.4477 14 12 14C12.5523 14 13 14.4477 13 15C13 15.5523 12.5523 16 12 16C11.4477 16 11 15.5523 11 15Z"
        fill="black" />
    <path
        d="M12 23C5.92487 23 1 18.0751 1 12C1 5.92487 5.92487 1 12 1C18.0751 1 23 5.92487 23 12C23 18.0751 18.0751 23 12 23ZM8 8C6.89543 8 6 8.89543 6 10C6 11.1046 6.89543 12 8 12C9.10457 12 10 11.1046 10 10C10 8.89543 9.10457 8 8 8ZM16 8C14.8954 8 14 8.89543 14 10C14 11.1046 14.8954 12 16 12C17.1046 12 18 11.1046 18 10C18 8.89543 17.1046 8 16 8ZM12 12C10.3431 12 9 13.3431 9 15C9 16.6569 10.3431 18 12 18C13.6569 18 15 16.6569 15 15C15 13.3431 13.6569 12 12 12Z"
        fill="black" />
</svg>