<svg width="24" height="24" viewBox="0 0 24 24" fill="none" xmlns="http://www.w3.org/2000/svg">
    <path
        d="M23 2H1V18H13V16C13 15.3015 13.1102 14.6287 13.3141 13.998H3V3.99805H21V9.67393C21.7204 9.8441 22.3945 10.1341 23 10.5218V2Z"
        fill="black" />
    <path d="M3 20H13V22H3V20Z" fill="black" />
    <path
        d="M18.2515 14.75C18.2515 14.0596 18.8111 13.5 19.5015 13.5C19.8456 13.5 20.1555 13.6377 20.3826 13.8634L21.0919 14.5683L22.5017 13.1498L21.7925 12.4448C21.206 11.8619 20.395 11.5 19.5015 11.5C17.7065 11.5 16.2515 12.9551 16.2515 14.75V15.5H15V22H24V15.5H18.2515V14.75Z"
        fill="black" />
</svg>