<svg width="24" height="24" viewBox="0 0 24 24" fill="none" xmlns="http://www.w3.org/2000/svg">
    <path d="M16 1H8V5H16V1Z" fill="black" />
    <path
        d="M3 3H6V7H18V3H21V10.9172C20.3019 10.6478 19.5432 10.5 18.75 10.5C15.2982 10.5 12.5 13.2982 12.5 16.75C12.5 19.313 13.9446 21.3386 15.0255 22.5271C15.1774 22.6941 15.3288 22.8519 15.4771 23H3V3Z"
        fill="black" />
    <path
        d="M18.75 23.7013C18.6826 23.6564 18.6149 23.6118 18.5471 23.5672C18.363 23.446 18.1786 23.3246 18.0005 23.1949C17.8856 23.1113 17.7252 22.9906 17.5345 22.836C17.1545 22.5281 16.6463 22.0799 16.1352 21.5179C15.1403 20.4239 14 18.7512 14 16.75C14 14.1266 16.1266 12 18.75 12C21.3734 12 23.5 14.1266 23.5 16.75C23.5 18.7512 22.3597 20.4239 21.3648 21.5179C20.8537 22.0799 20.3455 22.5281 19.9655 22.836C19.7748 22.9906 19.6144 23.1113 19.4995 23.1949C19.3213 23.3246 19.137 23.4459 18.9528 23.5672C18.8851 23.6118 18.8174 23.6564 18.75 23.7013ZM17.5 16V18H20V16H17.5Z"
        fill="black" />
</svg>