<svg width="24" height="24" viewBox="0 0 24 24" fill="none" xmlns="http://www.w3.org/2000/svg">
    <path
        d="M12 3C7.02944 3 3 7.02944 3 12C3 16.9706 7.02944 21 12 21C16.9706 21 21 16.9706 21 12V11H23V12C23 18.0751 18.0751 23 12 23C5.92487 23 1 18.0751 1 12C1 5.92487 5.92487 1 12 1C13.4978 1 14.9281 1.29991 16.2322 1.8439L17.1551 2.2289L16.3851 4.07474L15.4622 3.68974C14.3977 3.24571 13.2288 3 12 3ZM23.4142 4.5L12 15.9142L6.08579 10L7.5 8.58579L12 13.0858L22 3.08579L23.4142 4.5Z"
        fill="black" />
</svg>