<svg width="24" height="24" viewBox="0 0 24 24" fill="none" xmlns="http://www.w3.org/2000/svg">
    <path d="M16 1H8V5H16V1Z" fill="black" />
    <path
        d="M3 3H6V7H18V3H21V11.6736C20.0907 11.2417 19.0736 11 18 11C14.134 11 11 14.134 11 18C11 19.9587 11.8045 21.7295 13.101 23H3V3Z"
        fill="black" />
    <path
        d="M12.5 18C12.5 14.9624 14.9624 12.5 18 12.5C21.0376 12.5 23.5 14.9624 23.5 18C23.5 21.0376 21.0376 23.5 18 23.5C14.9624 23.5 12.5 21.0376 12.5 18ZM20.4142 19.0001L19 17.5857V15.752H17V18.4141L18.9999 20.4142L20.4142 19.0001Z"
        fill="black" />
</svg>