<svg width="24" height="24" viewBox="0 0 24 24" fill="none" xmlns="http://www.w3.org/2000/svg">
<g id="&#228;&#184;&#141;&#233;&#171;&#152;&#229;&#133;&#180;1-unhappy">
<g id="Union">
<path d="M12 3C7.02944 3 3 7.02944 3 12C3 16.9706 7.02944 21 12 21C16.9706 21 21 16.9706 21 12C21 7.02944 16.9706 3 12 3ZM1 12C1 5.92487 5.92487 1 12 1C18.0751 1 23 5.92487 23 12C23 18.0751 18.0751 23 12 23C5.92487 23 1 18.0751 1 12ZM9 8V12H7V8H9ZM17 8V12H15V8H17ZM7.66955 15.4993C8.53256 14.0074 10.1481 13 12 13C13.852 13 15.4675 14.0074 16.3305 15.4993L16.8312 16.3649L15.1 17.3663L14.5993 16.5007C14.0791 15.6014 13.1092 15 12 15C10.8909 15 9.92099 15.6014 9.40076 16.5007L8.90004 17.3663L7.16882 16.3649L7.66955 15.4993Z" fill="black"/>
</g>
</g>
</svg>
