<svg width="24" height="24" viewBox="0 0 24 24" fill="none" xmlns="http://www.w3.org/2000/svg">
    <path
        d="M6 9C6.92138 9 7.89295 9.23169 8.67602 9.75374C9.46716 10.2812 10 11.0748 10 12C10 12.9252 9.46716 13.7188 8.67602 14.2463C7.89295 14.7683 6.92138 15 6 15C5.07862 15 4.10705 14.7683 3.32398 14.2463C2.53284 13.7188 2 12.9252 2 12C2 11.0748 2.53284 10.2812 3.32398 9.75374C4.10705 9.23169 5.07862 9 6 9ZM18 9C18.9214 9 19.893 9.23169 20.676 9.75374C21.4672 10.2812 22 11.0748 22 12C22 12.9252 21.4672 13.7188 20.676 14.2463C19.893 14.7683 18.9214 15 18 15C17.0786 15 16.107 14.7683 15.324 14.2463C14.5328 13.7188 14 12.9252 14 12C14 11.0748 14.5328 10.2812 15.324 9.75374C16.107 9.23169 17.0786 9 18 9ZM10.998 10.9961H13.002V13H10.998V10.9961Z"
        fill="black" />
</svg>