<svg width="24" height="24" viewBox="0 0 24 24" fill="none" xmlns="http://www.w3.org/2000/svg">
    <path
        d="M11.5 2C8.46243 2 6 4.46243 6 7.5C6 10.5376 8.46243 13 11.5 13C14.5376 13 17 10.5376 17 7.5C17 4.46243 14.5376 2 11.5 2Z"
        fill="black" />
    <path
        d="M20.8289 13.7573L22.2431 15.1715L19.4147 18L22.2431 20.8284L20.8289 22.2426L18.0005 19.4142L15.172 22.2426L13.7578 20.8284L16.5862 18L13.7578 15.1715L15.172 13.7573L18.0005 16.5858L20.8289 13.7573Z"
        fill="black" />
    <path
        d="M12.8762 14C12.0139 15.103 11.5 16.4915 11.5 18C11.5 19.5085 12.0139 20.897 12.8762 22H2V20C2 16.6863 4.68629 14 8 14H12.8762Z"
        fill="black" />
</svg>