<svg width="24" height="24" viewBox="0 0 24 24" fill="none" xmlns="http://www.w3.org/2000/svg">
    <path
        d="M11.5 2C8.46244 2 6 4.46243 6 7.5C6 10.5376 8.46243 13 11.5 13C14.5376 13 17 10.5376 17 7.5C17 4.46243 14.5376 2 11.5 2Z"
        fill="black" />
    <path
        d="M18.0001 12.5938L22.9143 17.4521L21.5082 18.8743L19.0001 16.3948V23.504H17.0001V16.3948L14.492 18.8743L13.0859 17.4521L18.0001 12.5938Z"
        fill="black" />
    <path
        d="M12.8762 14C12.0139 15.103 11.5 16.4915 11.5 18C11.5 19.5085 12.0139 20.897 12.8762 22H2V20C2 16.6863 4.68629 14 8 14H12.8762Z"
        fill="black" />
</svg>