<svg width="24" height="24" viewBox="0 0 24 24" fill="none" xmlns="http://www.w3.org/2000/svg">
    <path d="M6.5 1.5H1.5V6.5H3.5V3.5H6.5V1.5Z" fill="black" />
    <path d="M22.5 1.5H17.5V3.5H20.5V6.5H22.5V1.5Z" fill="black" />
    <path d="M18.0549 7.34129L11.9997 3.8453L5.94548 7.34069L11.9991 10.8345L18.0549 7.34129Z" fill="black" />
    <path d="M19.0614 9.06958L12.999 12.5666V19.5778L19.0619 16.0774L19.0614 9.06958Z" fill="black" />
    <path d="M10.999 19.5769V12.5665L4.93841 9.06867L4.9375 16.0774L10.999 19.5769Z" fill="black" />
    <path d="M3.5 20.5V17.5H1.5V22.5H6.5V20.5H3.5Z" fill="black" />
    <path d="M22.5 22.5V17.5H20.5V20.5H17.5V22.5H22.5Z" fill="black" />
</svg>