<svg width="24" height="24" viewBox="0 0 24 24" fill="none" xmlns="http://www.w3.org/2000/svg">
    <path
        d="M2.00002 4.99997C2.00004 3.34313 3.34318 2 5.00002 2H20V4H5.00002C4.44774 4 4.00003 4.44771 4.00002 4.99999C4.00001 5.55228 4.44773 6 5.00002 6H19C20.6568 6 22 7.34314 22 9V19C22 20.6569 20.6568 22 19 22H2L2.00002 4.99997V4.99997ZM4 7.82929V20H19C19.5522 20 20 19.5523 20 19V9C20 8.44772 19.5522 8 19 8H5.00002C4.64938 8 4.31278 7.93984 4 7.82929ZM15 13H18V15H15V13Z"
        fill="black" />
</svg>