<svg width="24" height="24" viewBox="0 0 24 24" fill="none" xmlns="http://www.w3.org/2000/svg">
    <path
        d="M17.9794 1.54565L18.8028 2.11317C20.0091 2.94468 21.0555 3.99115 21.887 5.19753L22.4545 6.02091L20.8077 7.15589L20.2402 6.3325C19.5468 5.3264 18.6738 4.45335 17.6677 3.75989L16.8444 3.19237L17.9794 1.54565ZM11.456 6.87772C11.3046 6.72632 11.0591 6.72632 10.9077 6.87772C10.7565 7.02899 10.7563 7.27417 10.9074 7.4256C10.9075 7.42572 10.9072 7.42547 10.9074 7.4256L16.1444 12.6626L14.7301 14.0768L8.12671 7.47336C7.97531 7.32197 7.72985 7.32197 7.57846 7.47336C7.42707 7.62475 7.42707 7.87021 7.57846 8.0216L14.1819 14.625L12.7677 16.0393L7.53106 10.8026C7.37967 10.6512 7.13421 10.6512 6.98282 10.8026C6.83143 10.954 6.83142 11.1995 6.98282 11.3509L12.2194 16.5875L10.8052 18.0017L7.65339 14.8499C7.50277 14.6993 7.25857 14.6993 7.10796 14.8499C6.95734 15.0005 6.95734 15.2447 7.10796 15.3953L11.4284 19.7157C13.455 21.7424 16.7408 21.7424 18.7674 19.7157L19.6117 18.8714C21.2793 17.2038 21.6128 14.6215 20.4235 12.585L18.1973 8.7726C18.1541 8.69875 18.0569 8.67784 17.9872 8.72741C17.9377 8.76265 17.9153 8.82494 17.931 8.88365L18.5997 11.3793C18.6285 11.4866 18.6431 11.6127 18.628 11.7496C18.6235 11.7907 18.6131 11.8628 18.5853 11.9488C18.5629 12.0177 18.4974 12.1994 18.3234 12.3651C18.1003 12.5775 17.7664 12.6944 17.4178 12.6174C17.1473 12.5577 16.9832 12.4049 16.9261 12.3479L11.456 6.87772ZM5.98839 13.1849L5.5686 12.7651C4.63616 11.8326 4.63616 10.3209 5.5686 9.38842C5.67092 9.2861 5.78021 9.19502 5.89495 9.11515C5.24266 8.18383 5.33243 6.89096 6.16425 6.05915C6.99606 5.22733 8.28893 5.13756 9.22026 5.78985C9.30012 5.67511 9.3912 5.56582 9.49352 5.4635C10.426 4.53106 11.9377 4.53106 12.8702 5.4635L15.9478 8.5411C16.0297 7.9716 16.3393 7.44535 16.8278 7.09777C17.8553 6.3668 19.2885 6.67519 19.9243 7.76405L22.1506 11.5764C23.7982 14.3978 23.3362 17.9754 21.0259 20.2856L20.1816 21.13C17.374 23.9376 12.8218 23.9376 10.0142 21.13L5.69374 16.8095C4.76208 15.8779 4.76208 14.3673 5.69374 13.4357C5.78659 13.3428 5.88519 13.2592 5.98839 13.1849ZM3.1925 16.8442L3.76002 17.6676C4.45347 18.6737 5.32653 19.5467 6.33263 20.2401L7.15601 20.8076L6.02104 22.4544L5.19765 21.8869C3.99127 21.0554 2.9448 20.009 2.1133 18.8026L1.54578 17.9793L3.1925 16.8442Z"
        fill="black" />
</svg>