{
    "asset" : {
        "generator" : "Khronos glTF Blender I/O v1.0.5",
        "version" : "2.0"
    },
    "scene" : 0,
    "scenes" : [
        {
            "name" : "Scene.001",
            "nodes" : [
                0,
                1,
                2
            ]
        }
    ],
    "nodes" : [
        {
            "mesh" : 0,
            "name" : "tex_02_AO_dark",
            "scale" : [
                0.4845753312110901,
                0.4845752418041229,
                0.4845753312110901
            ],
            "translation" : [
                -0.0027135894633829594,
                1.2817107439041138,
                0
            ]
        },
        {
            "mesh" : 1,
            "name" : "tex_02_AO",
            "scale" : [
                0.4845753312110901,
                0.4845752418041229,
                0.4845753312110901
            ],
            "translation" : [
                -0.0027135894633829594,
                1.2817107439041138,
                0
            ]
        },
        {
            "mesh" : 2,
            "name" : "tex_01",
            "scale" : [
                0.4845753312110901,
                0.4845752418041229,
                0.4845753312110901
            ],
            "translation" : [
                -0.0027135894633829594,
                1.2817107439041138,
                0
            ]
        }
    ],
    "materials" : [
        {
            "doubleSided" : true,
            "name" : "tex_02_AO_dark",
            "pbrMetallicRoughness" : {
                "baseColorTexture" : {
                    "index" : 0,
                    "texCoord" : 0
                },
                "metallicFactor" : 0,
                "roughnessFactor" : 0.5
            }
        },
        {
            "doubleSided" : true,
            "name" : "tex_02_AO",
            "pbrMetallicRoughness" : {
                "baseColorTexture" : {
                    "index" : 1,
                    "texCoord" : 0
                },
                "metallicFactor" : 0,
                "roughnessFactor" : 0.5
            }
        },
        {
            "doubleSided" : true,
            "name" : "tex_01",
            "pbrMetallicRoughness" : {
                "baseColorTexture" : {
                    "index" : 2,
                    "texCoord" : 0
                },
                "metallicFactor" : 0,
                "roughnessFactor" : 0.5
            }
        }
    ],
    "meshes" : [
        {
            "name" : "BODY.002",
            "primitives" : [
                {
                    "attributes" : {
                        "POSITION" : 0,
                        "NORMAL" : 1,
                        "TEXCOORD_0" : 2
                    },
                    "indices" : 3,
                    "material" : 0
                }
            ]
        },
        {
            "name" : "BODY.000",
            "primitives" : [
                {
                    "attributes" : {
                        "POSITION" : 4,
                        "NORMAL" : 5,
                        "TEXCOORD_0" : 6
                    },
                    "indices" : 7,
                    "material" : 1
                }
            ]
        },
        {
            "name" : "BODY.040",
            "primitives" : [
                {
                    "attributes" : {
                        "POSITION" : 8,
                        "NORMAL" : 9,
                        "TEXCOORD_0" : 10
                    },
                    "indices" : 11,
                    "material" : 2
                }
            ]
        }
    ],
    "textures" : [
        {
            "source" : 0
        },
        {
            "source" : 0
        },
        {
            "source" : 1
        }
    ],
    "images" : [
        {
            "bufferView" : 4,
            "mimeType" : "image/png",
            "name" : "tex_02_AO.png"
        },
        {
            "bufferView" : 13,
            "mimeType" : "image/png",
            "name" : "Voyager_tex_01"
        }
    ],
    "accessors" : [
        {
            "bufferView" : 0,
            "componentType" : 5126,
            "count" : 433,
            "max" : [
                1.9020500183105469,
                -0.5671820640563965,
                1.902055263519287
            ],
            "min" : [
                -1.9020501375198364,
                -1.398205041885376,
                -1.902054786682129
            ],
            "type" : "VEC3"
        },
        {
            "bufferView" : 1,
            "componentType" : 5126,
            "count" : 433,
            "type" : "VEC3"
        },
        {
            "bufferView" : 2,
            "componentType" : 5126,
            "count" : 433,
            "type" : "VEC2"
        },
        {
            "bufferView" : 3,
            "componentType" : 5123,
            "count" : 1368,
            "type" : "SCALAR"
        },
        {
            "bufferView" : 5,
            "componentType" : 5126,
            "count" : 1553,
            "max" : [
                3.9334797859191895,
                2.1245176792144775,
                3.9334850311279297
            ],
            "min" : [
                -3.9334797859191895,
                -1.1915440559387207,
                -3.9334850311279297
            ],
            "type" : "VEC3"
        },
        {
            "bufferView" : 6,
            "componentType" : 5126,
            "count" : 1553,
            "type" : "VEC3"
        },
        {
            "bufferView" : 7,
            "componentType" : 5126,
            "count" : 1553,
            "type" : "VEC2"
        },
        {
            "bufferView" : 8,
            "componentType" : 5123,
            "count" : 6960,
            "type" : "SCALAR"
        },
        {
            "bufferView" : 9,
            "componentType" : 5126,
            "count" : 21928,
            "max" : [
                7.998589038848877,
                15.935519218444824,
                26.20960807800293
            ],
            "min" : [
                -7.999389171600342,
                -6.841893196105957,
                -8.6850004196167
            ],
            "type" : "VEC3"
        },
        {
            "bufferView" : 10,
            "componentType" : 5126,
            "count" : 21928,
            "type" : "VEC3"
        },
        {
            "bufferView" : 11,
            "componentType" : 5126,
            "count" : 21928,
            "type" : "VEC2"
        },
        {
            "bufferView" : 12,
            "componentType" : 5123,
            "count" : 52806,
            "type" : "SCALAR"
        }
    ],
    "bufferViews" : [
        {
            "buffer" : 0,
            "byteLength" : 5196,
            "byteOffset" : 0
        },
        {
            "buffer" : 0,
            "byteLength" : 5196,
            "byteOffset" : 5196
        },
        {
            "buffer" : 0,
            "byteLength" : 3464,
            "byteOffset" : 10392
        },
        {
            "buffer" : 0,
            "byteLength" : 2736,
            "byteOffset" : 13856
        },
        {
            "buffer" : 0,
            "byteLength" : 392021,
            "byteOffset" : 16592
        },
        {
            "buffer" : 0,
            "byteLength" : 18636,
            "byteOffset" : 408616
        },
        {
            "buffer" : 0,
            "byteLength" : 18636,
            "byteOffset" : 427252
        },
        {
            "buffer" : 0,
            "byteLength" : 12424,
            "byteOffset" : 445888
        },
        {
            "buffer" : 0,
            "byteLength" : 13920,
            "byteOffset" : 458312
        },
        {
            "buffer" : 0,
            "byteLength" : 263136,
            "byteOffset" : 472232
        },
        {
            "buffer" : 0,
            "byteLength" : 263136,
            "byteOffset" : 735368
        },
        {
            "buffer" : 0,
            "byteLength" : 175424,
            "byteOffset" : 998504
        },
        {
            "buffer" : 0,
            "byteLength" : 105612,
            "byteOffset" : 1173928
        },
        {
            "buffer" : 0,
            "byteLength" : 1116685,
            "byteOffset" : 1279540
        }
    ],
    "buffers" : [
        {
            "byteLength" : 2396228,
            "uri" : "data:application/octet-stream;base64,"
        }
    ]
}
