<svg width="24" height="24" viewBox="0 0 24 24" fill="none" xmlns="http://www.w3.org/2000/svg">
    <path
        d="M12 23C5.92487 23 1 18.0751 1 12C1 5.92487 5.92487 1 12 1C18.0751 1 23 5.92487 23 12C23 18.0751 18.0751 23 12 23ZM10.2327 10.1338L6.76855 8.13379L5.76855 9.86584L9.23266 11.8658L10.2327 10.1338ZM14.7686 11.8658L18.2327 9.86584L17.2327 8.13379L13.7686 10.1338L14.7686 11.8658ZM11.9998 18.9998C14.7612 18.9998 16.9998 16.7612 16.9998 13.9998H6.99981C6.99981 16.7612 9.23839 18.9998 11.9998 18.9998Z"
        fill="black" />
</svg>