<svg width="24" height="24" viewBox="0 0 24 24" fill="none" xmlns="http://www.w3.org/2000/svg">
    <path
        d="M18.5014 4.08714L16.38 1.96582L14.9658 3.38003L17.0871 5.50135L14.9658 7.62267L16.38 9.03689L18.5014 6.91557L20.6227 9.03689L22.0369 7.62267L19.9156 5.50135L22.0369 3.38003L20.6227 1.96582L18.5014 4.08714Z"
        fill="black" />
    <path
        d="M9.57995 2H1V3C1 6.99781 2.17402 10.7245 4.1964 13.8503C5.73668 16.2311 7.76894 18.2633 10.1497 19.8036C13.2755 21.826 17.0022 23 21 23H22V14.4201L15.3094 12.9332L13.4504 14.7922C11.7492 13.7006 10.2994 12.2508 9.2078 10.5496L11.0668 8.69061L9.57995 2Z"
        fill="black" />
</svg>