<svg width="24" height="24" viewBox="0 0 24 24" fill="none" xmlns="http://www.w3.org/2000/svg">
    <path
        d="M12 3.5C8.13401 3.5 5 6.63401 5 10.5C5 14.366 8.13401 17.5 12 17.5C15.866 17.5 19 14.366 19 10.5C19 6.63401 15.866 3.5 12 3.5ZM3 10.5C3 5.52944 7.02944 1.5 12 1.5C16.9706 1.5 21 5.52944 21 10.5C21 15.1326 17.5 18.9476 13 19.4451V20.9507C14.7579 20.7763 16.3804 20.1472 17.7504 19.1824L18.568 18.6066L19.7195 20.2418L18.9019 20.8176C16.9495 22.1925 14.5676 23 12 23C9.43242 23 7.05045 22.1925 5.09808 20.8176L4.28046 20.2418L5.43199 18.6066L6.24961 19.1824C7.61964 20.1472 9.24209 20.7763 11 20.9507V19.4451C6.50005 18.9476 3 15.1326 3 10.5ZM12 8.5C10.8954 8.5 10 9.39543 10 10.5C10 11.6046 10.8954 12.5 12 12.5C13.1046 12.5 14 11.6046 14 10.5C14 9.39543 13.1046 8.5 12 8.5ZM8 10.5C8 8.29086 9.79086 6.5 12 6.5C14.2091 6.5 16 8.29086 16 10.5C16 12.7091 14.2091 14.5 12 14.5C9.79086 14.5 8 12.7091 8 10.5Z"
        fill="black" />
</svg>