<svg width="24" height="24" viewBox="0 0 24 24" fill="none" xmlns="http://www.w3.org/2000/svg">
    <path
        d="M9.51937 4.91466C10.442 3.97928 11.0016 2.9551 11.0016 2H13.0016C13.0016 2.95572 13.5614 3.98036 14.4838 4.91586C15.3941 5.83906 16.5215 6.53315 17.3483 6.84034C17.6848 6.96537 17.9022 7 18 7L19 7V9L18 9L18 11L6.00235 11V9L5.00002 9V7H6.00002C6.09814 7 6.3162 6.9652 6.65383 6.83965C7.48135 6.53194 8.60896 5.83767 9.51937 4.91466Z"
        fill="black" />
    <path
        d="M2 13.0001V15.0001H3L3 20.0001H2V22.0001H11.002L11.002 18H13.002L13.002 22.0001H22V20.0001H21V15.0001H22V13.0001H2Z"
        fill="black" />
</svg>