<svg width="24" height="24" viewBox="0 0 24 24" fill="none" xmlns="http://www.w3.org/2000/svg">
<g id="&#229;&#147;&#173;&#231;&#172;&#145;-cry-and-laugh">
<g id="Union">
<path d="M12 3C7.02944 3 3 7.02944 3 12C3 16.9706 7.02944 21 12 21C16.9706 21 21 16.9706 21 12C21 7.02944 16.9706 3 12 3ZM1 12C1 5.92487 5.92487 1 12 1C18.0751 1 23 5.92487 23 12C23 18.0751 18.0751 23 12 23C5.92487 23 1 18.0751 1 12ZM6 9H10V11H9V13H15V11H14V9H18V11H17V14H16.0197L15.9807 14.1955C15.5815 16.1985 14.0905 18 12 18C9.90954 18 8.41853 16.1985 8.01929 14.1955L7.98033 14H7V11H6V9ZM10.4446 15C10.8666 15.6617 11.4646 16 12 16C12.5354 16 13.1334 15.6617 13.5554 15L10.4446 15Z" fill="black"/>
</g>
</g>
</svg>
