<svg width="24" height="24" viewBox="0 0 24 24" fill="none" xmlns="http://www.w3.org/2000/svg">
    <path
        d="M13 1H3V23H13.2561C13.0902 22.5308 13 22.026 13 21.5V15.5C13 13.0147 15.0147 11 17.5 11C18.9136 11 20.175 11.6518 21 12.6713V9H13V1Z"
        fill="black" />
    <path d="M21 7V6.58579L15.4142 1H15V7H21Z" fill="black" />
    <path
        d="M17.5 13C16.1193 13 15 14.1193 15 15.5V20C15 22.2091 16.7909 24 19 24C21.2091 24 23 22.2091 23 20V15.5H21V20C21 21.1046 20.1046 22 19 22C17.8954 22 17 21.1046 17 20V15.5C17 15.2239 17.2239 15 17.5 15C17.7761 15 18 15.2239 18 15.5V20H20V15.5C20 14.1193 18.8807 13 17.5 13Z"
        fill="black" />
</svg>