<svg width="24" height="24" viewBox="0 0 24 24" fill="none" xmlns="http://www.w3.org/2000/svg">
    <path
        d="M13 1H3V23H14.7964C12.5643 22.0463 11 19.8308 11 17.25C11 13.7982 13.7982 11 17.25 11C18.657 11 19.9554 11.4649 21 12.2495V9H13V1Z"
        fill="black" />
    <path d="M21 7V6.58579L15.4142 1H15V7H21Z" fill="black" />
    <path
        d="M17.25 12.5C14.6266 12.5 12.5 14.6266 12.5 17.25C12.5 19.8734 14.6266 22 17.25 22C18.1995 22 19.0839 21.7214 19.826 21.2415L21.501 22.9142L22.9142 21.499L21.2405 19.8276C21.721 19.0852 22 18.2002 22 17.25C22 14.6266 19.8734 12.5 17.25 12.5ZM14.5 17.25C14.5 15.7312 15.7312 14.5 17.25 14.5C18.7688 14.5 20 15.7312 20 17.25C20 18.7688 18.7688 20 17.25 20C15.7312 20 14.5 18.7688 14.5 17.25Z"
        fill="black" />
</svg>