<svg width="24" height="24" viewBox="0 0 24 24" fill="none" xmlns="http://www.w3.org/2000/svg">
    <path
        d="M13 1H3V23H11.9995C11.0579 21.7465 10.5 20.1884 10.5 18.5C10.5 14.3579 13.8579 11 18 11C19.0667 11 20.0813 11.2227 21 11.6241V9H13V1Z"
        fill="black" />
    <path d="M21 7V6.58579L15.4142 1H15V7H21Z" fill="black" />
    <path
        d="M17.4142 14L18.4142 13L17 11.5858L13.5858 15L17 18.4142L18.4142 17L17.4142 16H18C19.6569 16 21 17.3431 21 19C21 20.6569 19.6569 22 18 22C16.3431 22 15 20.6569 15 19V18H13V19C13 21.7614 15.2386 24 18 24C20.7614 24 23 21.7614 23 19C23 16.2386 20.7614 14 18 14H17.4142Z"
        fill="black" />
</svg>