<svg width="24" height="24" viewBox="0 0 24 24" fill="none" xmlns="http://www.w3.org/2000/svg">
    <path d="M6.0872 14.9999L4.7959 16.2883L6.20851 17.7041L8.91874 15L6.20862 12.2956L4.7959 13.7113L6.0872 14.9999Z"
        fill="black" />
    <path
        d="M19.2041 16.2883L17.9128 14.9999L19.2041 13.7113L17.7914 12.2956L15.0813 15L17.7915 17.7041L19.2041 16.2883Z"
        fill="black" />
    <path
        d="M7.41421 3L11 6.58579V3H18.4142L24 8.58579V21H0V3H7.41421ZM11 11H5V5H2V19H11V11ZM13 19H22V11H16V5H13V19ZM7 9H10.5858L7 5.41421V9ZM18 9H21.5858L18 5.41421V9Z"
        fill="black" />
</svg>