<svg width="24" height="24" viewBox="0 0 24 24" fill="none" xmlns="http://www.w3.org/2000/svg">
    <path
        d="M13 1H3V23H13.8464C12.4127 21.8077 11.5 20.0104 11.5 18C11.5 14.4101 14.4101 11.5 18 11.5C19.0821 11.5 20.1025 11.7644 21 12.2322V9H13V1Z"
        fill="black" />
    <path d="M21 7V6.58579L15.4142 1H15V7H21Z" fill="black" />
    <path
        d="M16.5 16.2489C16.5 15.6561 17.0694 15 18 15C18.9306 15 19.5 15.6561 19.5 16.2489C19.5 16.5523 19.3677 16.8476 19.1123 17.0834L17 19.0759V20.6223H19V19.9388L20.4734 18.5489C21.0934 17.9745 21.5 17.1643 21.5 16.2489C21.5 14.3576 19.8308 13 18 13C16.1692 13 14.5 14.3576 14.5 16.2489V17.2489H16.5V16.2489Z"
        fill="black" />
    <path d="M19.003 21.9961H16.9991V24H19.003V21.9961Z" fill="black" />
</svg>