<svg width="24" height="24" viewBox="0 0 24 24" fill="none" xmlns="http://www.w3.org/2000/svg">
    <path d="M10.5 3H7V6.5H9V5H10.5V3Z" fill="black" />
    <path d="M15.5 3H12.5V5H15.5V3Z" fill="black" />
    <path d="M21 3H17.5V5H19V6.5H21V3Z" fill="black" />
    <path d="M5 19V7.5H3V21H16.5V19H5Z" fill="black" />
    <path d="M9 11.5V8.5H7V11.5H9Z" fill="black" />
    <path d="M21 11.5V8.5H19V11.5H21Z" fill="black" />
    <path d="M9 15V13.5H7V17H10.5V15H9Z" fill="black" />
    <path d="M21 17V13.5H19V15H17.5V17H21Z" fill="black" />
    <path d="M15.5 15H12.5V17H15.5V15Z" fill="black" />
    <path d="M17 7H11V13H17V7Z" fill="black" />
</svg>