<svg width="24" height="24" viewBox="0 0 24 24" fill="none" xmlns="http://www.w3.org/2000/svg">
    <path
        d="M4 8.07043C2.61929 8.07043 1.5 9.18972 1.5 10.5704C1.5 11.9511 2.61929 13.0704 4 13.0704L8 13.0704V15.0297C8 15.5609 8.14102 16.0825 8.40866 16.5413L10.8176 20.6709C11.5331 21.8974 13.0105 22.4544 14.3576 22.0053L20.4487 19.975C21.6737 19.5666 22.5 18.4202 22.5 17.1289V9.05523C22.5 8.12382 22.0674 7.24525 21.3291 6.67736L15.0416 1.84082L13.5025 2.8669C12.8282 3.31645 12.4918 4.12852 12.6508 4.92323L13.2802 8.07043L4 8.07043Z"
        fill="black" />
</svg>