<svg width="24" height="24" viewBox="0 0 24 24" fill="none" xmlns="http://www.w3.org/2000/svg">
    <path
        d="M5.39889 5.20031C9.29726 2.26982 14.6995 2.26982 18.5979 5.20031H16.4984V7.20031H21.4837L21.4864 1.50132L19.4864 1.49996L19.4851 3.37211C15.0106 0.212814 8.98757 0.212551 4.51275 3.37132L4.51245 1.50027L2.51245 1.50059L2.5131 7.20031L7.49838 7.20031L7.49838 5.20031L5.39889 5.20031ZM9.24404 7.56574C9.24404 6.04382 10.4778 4.81006 11.9997 4.81006C13.5216 4.81006 14.7554 6.04382 14.7554 7.56574V10.5195H15.9137C16.4021 10.5195 16.8816 10.6492 17.3034 10.8954L20.9281 13.0111C22.0546 13.6687 22.5661 15.0257 22.1538 16.2633L20.3714 21.6138C19.9963 22.7397 18.9428 23.4993 17.756 23.4993H10.6705C9.8143 23.4993 9.00672 23.1014 8.4849 22.4227L4.18658 16.8314L5.1277 15.4189C5.55797 14.7731 6.34109 14.4583 7.09861 14.6268L9.24404 15.1038V7.56574ZM11.9997 6.81006C11.5824 6.81006 11.244 7.14839 11.244 7.56574V17.5974L6.74588 16.5972L6.64528 16.7482L10.0705 21.2037C10.2138 21.39 10.4354 21.4993 10.6705 21.4993H17.756C18.0818 21.4993 18.371 21.2908 18.4739 20.9817L20.2563 15.6311C20.3695 15.2914 20.2291 14.9189 19.9199 14.7384L16.2952 12.6227C16.1794 12.5551 16.0478 12.5195 15.9137 12.5195H12.7554V7.56574C12.7554 7.14839 12.4171 6.81006 11.9997 6.81006Z"
        fill="black" />
</svg>