<svg width="24" height="24" viewBox="0 0 24 24" fill="none" xmlns="http://www.w3.org/2000/svg">
    <path
        d="M18.3254 5.15039C18.7878 5.15039 19.236 5.21104 19.6626 5.32482C20.2771 5.02855 20.9439 4.77761 21.6395 4.51579L22.7891 4.08216L22.0831 2.21094L21.1475 2.56397L20.9 2.65702C19.9213 3.02443 18.7833 3.45164 17.7849 4.07517C17.572 4.20812 17.3629 4.3514 17.1604 4.50661C16.6722 3.04976 15.2962 2 13.675 2C11.6454 2 10 3.64535 10 5.675C10 7.55985 11.419 9.11329 13.2469 9.32534C13.7128 6.94583 15.8094 5.15039 18.3254 5.15039Z"
        fill="black" />
    <path
        d="M18.3254 15.5004C16.6293 15.5004 15.1238 14.6845 14.18 13.4237C13.8439 13.9785 13.6504 14.6294 13.6504 15.3254C13.6504 17.355 15.2957 19.0004 17.3254 19.0004C19.355 19.0004 21.0004 17.355 21.0004 15.3254C21.0004 15.1402 20.9867 14.9582 20.9603 14.7803C20.1885 15.2378 19.2876 15.5004 18.3254 15.5004Z"
        fill="black" />
    <path
        d="M13.4083 11.9433C13.291 11.5865 13.2114 11.2125 13.1743 10.8261C11.821 10.6962 10.6199 10.045 9.77423 9.07579C8.89355 9.74717 8.3252 10.8073 8.3252 12.0002C8.3252 14.0298 9.97055 15.6752 12.0002 15.6752C12.0543 15.6752 12.1082 15.674 12.1618 15.6717C12.1542 15.5572 12.1504 15.4418 12.1504 15.3254C12.1504 14.0325 12.6245 12.8504 13.4083 11.9433Z"
        fill="black" />
    <path
        d="M9.09577 3.26211C8.95769 3.24637 8.81729 3.23828 8.675 3.23828C6.64535 3.23828 5 4.88364 5 6.91328C5 8.39077 5.8719 9.66461 7.12923 10.2484C7.48361 9.26316 8.12839 8.41653 8.96031 7.8117C8.66465 7.16035 8.5 6.4369 8.5 5.675C8.5 4.80363 8.71537 3.98255 9.09577 3.26211Z"
        fill="black" />
    <path
        d="M6.83111 11.7505C5.9209 11.4033 5.13389 10.8066 4.55373 10.0439C3.90201 10.7071 3.5 11.6165 3.5 12.6197C3.5 14.37 4.72362 15.8345 6.3621 16.2045C6.46145 15.3742 6.75741 14.6042 7.2021 13.9426C6.95905 13.3429 6.8252 12.6872 6.8252 12.0002C6.8252 11.9165 6.82718 11.8333 6.83111 11.7505Z"
        fill="black" />
    <path
        d="M8.10765 15.4104C7.92569 15.846 7.8252 16.3242 7.8252 16.8258C7.8252 18.8554 9.47055 20.5008 11.5002 20.5008C12.53 20.5008 13.4609 20.0772 14.1281 19.3948C13.393 18.8165 12.8185 18.0432 12.4824 17.153C12.3236 17.1677 12.1628 17.1752 12.0002 17.1752C10.4484 17.1752 9.05616 16.4922 8.10765 15.4104Z"
        fill="black" />
    <path
        d="M6.40539 17.7383C5.04182 17.535 3.85197 16.7997 3.05373 15.7504C2.40201 16.4135 2 17.3229 2 18.3262C2 20.3558 3.64535 22.0012 5.675 22.0012C6.70479 22.0012 7.63566 21.5776 8.30288 20.8952C7.32565 20.1263 6.63216 19.013 6.40539 17.7383Z"
        fill="black" />
    <path
        d="M18.3254 14.0004C20.355 14.0004 22.0004 12.355 22.0004 10.3254C22.0004 8.29574 20.355 6.65039 18.3254 6.65039C16.2957 6.65039 14.6504 8.29574 14.6504 10.3254C14.6504 12.355 16.2957 14.0004 18.3254 14.0004Z"
        fill="black" />
</svg>