<svg width="24" height="24" viewBox="0 0 24 24" fill="none" xmlns="http://www.w3.org/2000/svg">
    <path
        d="M22 2H2V22H13.2322C12.7644 21.1025 12.5 20.0821 12.5 19C12.5 17.0997 13.3155 15.3899 14.6156 14.2013L9 8.58579L4 13.5858V4H20V12.5764C20.7113 12.6863 21.3845 12.9114 22 13.2322V2Z"
        fill="black" />
    <path
        d="M16 5.25C14.4812 5.25 13.25 6.48122 13.25 8C13.25 9.51878 14.4812 10.75 16 10.75C17.5188 10.75 18.75 9.51878 18.75 8C18.75 6.48122 17.5188 5.25 16 5.25Z"
        fill="black" />
    <path d="M18 24H20V20H24V18H20V14H18V18H14V20H18V24Z" fill="black" />
</svg>