<svg width="24" height="24" viewBox="0 0 24 24" fill="none" xmlns="http://www.w3.org/2000/svg">
    <path
        d="M10.8284 9.17157C9.26633 7.60948 6.73367 7.60948 5.17157 9.17157C3.60948 10.7337 3.60948 13.2663 5.17157 14.8284C6.73367 16.3905 9.26633 16.3905 10.8284 14.8284C12.3905 13.2663 12.3905 10.7337 10.8284 9.17157ZM3.75736 7.75736C6.10051 5.41421 9.8995 5.41421 12.2426 7.75736C13.1589 8.67365 13.7169 9.81257 13.9166 11H22V13H20.5V15H18.5V13H17.5V15.9985H15.5V13H13.9166C13.7169 14.1874 13.1589 15.3264 12.2426 16.2426C9.8995 18.5858 6.10051 18.5858 3.75736 16.2426C1.41421 13.8995 1.41421 10.1005 3.75736 7.75736Z"
        fill="black" />
</svg>