<svg width="24" height="24" viewBox="0 0 24 24" fill="none" xmlns="http://www.w3.org/2000/svg">
    <path
        d="M3.7998 8.20012C3.7998 3.67874 7.47714 -0.00218182 12.0003 0.000123152C16.5218 0.00242723 20.1998 3.67781 20.1998 8.20012C20.1998 9.4637 19.938 10.4268 19.4169 11.689C19.2313 12.1384 18.9405 12.7697 18.6196 13.4664C18.5 13.7259 18.3763 13.9946 18.2522 14.2662C17.785 15.2895 17.2987 16.3872 16.9412 17.3486L16.699 18.0001H7.28967L7.05359 17.3343C6.71497 16.3793 6.23324 15.2883 5.76342 14.2671C5.62102 13.9576 5.47797 13.6509 5.34072 13.3566C5.03727 12.7061 4.76223 12.1164 4.58541 11.6917C4.05832 10.4256 3.7998 9.46281 3.7998 8.20012ZM7.5 19.0001H16.5V21.0001H7.5V19.0001ZM9.5 22.0001H14.5V24.0001H9.5V22.0001Z"
        fill="black" />
</svg>