<svg width="24" height="24" viewBox="0 0 24 24" fill="none" xmlns="http://www.w3.org/2000/svg">
    <path
        d="M16.75 7.71395C16.8969 7.71395 17.0433 7.71723 17.1892 7.72373C16.1727 4.59379 12.7794 2.29395 8.75 2.29395C3.91751 2.29395 0 5.60188 0 9.68242C0 11.9053 1.16251 13.8989 3.00217 15.2533L2.64999 17.9649L5.4876 16.5403C6.336 16.8283 7.25019 17.0073 8.20586 17.0568C8.07141 16.5205 8 15.9584 8 15.3749C8 10.9242 12.1557 7.71395 16.75 7.71395ZM5.99999 8.04394C5.4477 8.04394 4.99999 7.59623 4.99999 7.04395C4.99999 6.49166 5.4477 6.04394 5.99999 6.04394C6.55227 6.04394 6.99999 6.49166 6.99999 7.04395C6.99999 7.59623 6.55227 8.04394 5.99999 8.04394ZM11.5 8.05127C10.9477 8.05127 10.5 7.60355 10.5 7.05127C10.5 6.49898 10.9477 6.05127 11.5 6.05127C12.0523 6.05127 12.5 6.49898 12.5 7.05127C12.5 7.60355 12.0523 8.05127 11.5 8.05127Z"
        fill="black" />
    <path
        d="M24 15.3749C24 17.0774 23.1874 18.6185 21.8739 19.7336V22.5064L19.4364 21.0991C18.6056 21.3809 17.6991 21.5359 16.75 21.5359C12.7459 21.5359 9.5 18.7776 9.5 15.3749C9.5 11.9723 12.7459 9.21395 16.75 9.21395C20.7541 9.21395 24 11.9723 24 15.3749ZM13.31 13.3719C13.31 13.9242 13.7577 14.3719 14.31 14.3719C14.8623 14.3719 15.31 13.9242 15.31 13.3719C15.31 12.8196 14.8623 12.3719 14.31 12.3719C13.7577 12.3719 13.31 12.8196 13.31 13.3719ZM18.19 13.3719C18.19 13.9242 18.6377 14.3719 19.19 14.3719C19.7423 14.3719 20.19 13.9242 20.19 13.3719C20.19 12.8196 19.7423 12.3719 19.19 12.3719C18.6377 12.3719 18.19 12.8196 18.19 13.3719Z"
        fill="black" />
</svg>