<svg width="25" height="24" viewBox="0 0 25 24" fill="none" xmlns="http://www.w3.org/2000/svg">
    <path
        d="M11.2256 -0.00341797H13.2295V2.00049H11.2256V-0.00341797ZM4.4494 2.80335L5.86631 4.22039L4.4494 5.6373L3.03236 4.22039L4.4494 2.80335ZM20.006 2.80357L21.4226 4.22033L20.006 5.63721L18.5883 4.22033L20.006 2.80357ZM4.22656 12.0005C4.22656 7.58221 7.80828 4.00049 12.2266 4.00049C16.6448 4.00049 20.2266 7.58221 20.2266 12.0005C20.2266 16.4188 16.6448 20.0005 12.2266 20.0005C7.80828 20.0005 4.22656 16.4188 4.22656 12.0005ZM0.225586 10.9966H2.22949V13.0005H0.225586V10.9966ZM22.2256 10.9966H24.2295V13.0005H22.2256V10.9966ZM4.44936 18.3598L5.86616 19.7765L4.44936 21.1941L3.03257 19.7765L4.44936 18.3598ZM20.006 18.36L21.4224 19.7765L20.006 21.1939L18.5885 19.7765L20.006 18.36ZM11.2256 21.9966H13.2295V24.0005H11.2256V21.9966Z"
        fill="black" />
</svg>