<svg width="24" height="24" viewBox="0 0 24 24" fill="none" xmlns="http://www.w3.org/2000/svg">
    <path
        d="M13.0018 3.08326L13.0039 2.00195L11.0039 1.99805L11.0018 3.08266C8.1632 3.558 6 6.02638 6 9H2V22H7.5V19.4999C7.5 17.5577 8.4697 16.0975 9.27012 15.217C9.68105 14.765 10.0876 14.4199 10.3925 14.1861C10.5464 14.0681 10.6785 13.9754 10.7777 13.9088L10.971 13.7849L12 13.1675L13.029 13.7849L13.2223 13.9088C13.3215 13.9754 13.4536 14.0681 13.6075 14.1861C13.9124 14.4199 14.319 14.765 14.7299 15.217C15.5303 16.0975 16.5 17.5577 16.5 19.4999V22H22V9H18C18 6.02763 15.8386 3.56007 13.0018 3.08326ZM13.002 6.99805V9.00195H10.998V6.99805H13.002Z"
        fill="black" />
    <path d="M9.5 19.5C9.5 17 12 15.5 12 15.5C12 15.5 14.5 17 14.5 19.5V22H9.5V19.5Z" fill="black" />
</svg>