<svg width="24" height="24" viewBox="0 0 24 24" fill="none" xmlns="http://www.w3.org/2000/svg">
    <path d="M14.8091 1.36241L11.4983 7.20403L21.9016 7.20403C20.5176 4.3516 17.9368 2.1862 14.8091 1.36241Z"
        fill="black" />
    <path
        d="M22.6191 9.12211L15.7974 9.12211L20.993 18.3358C22.2569 16.5446 22.9998 14.358 22.9998 12.0002C22.9998 11.0053 22.8674 10.0402 22.6191 9.12211Z"
        fill="black" />
    <path
        d="M19.6664 19.8883L16.3168 13.953L11.2297 22.9737C11.4843 22.9913 11.741 23.0002 11.9998 23.0002C14.9814 23.0002 17.6861 21.8132 19.6664 19.8883Z"
        fill="black" />
    <path d="M9.21356 22.6441L12.5151 16.7944H2.09693C3.48413 19.6549 6.07466 21.8248 9.21356 22.6441Z" fill="black" />
    <path
        d="M1.37982 14.8763L8.20211 14.8763L3.01563 5.65176C1.74616 7.44533 0.999756 9.63686 0.999756 12.0002C0.999756 12.9945 1.1319 13.9589 1.37982 14.8763Z"
        fill="black" />
    <path
        d="M4.34438 4.10125C6.32369 2.18281 9.02378 1.00024 11.9998 1.00024C12.2666 1.00024 12.5314 1.00977 12.7938 1.02851L7.68635 10.0462L4.34438 4.10125Z"
        fill="black" />
</svg>