<svg width="24" height="24" viewBox="0 0 24 24" fill="none" xmlns="http://www.w3.org/2000/svg">
    <path
        d="M12 23C5.92487 23 1 18.0751 1 12C1 5.92487 5.92487 1 12 1C18.0751 1 23 5.92487 23 12C23 18.0751 18.0751 23 12 23ZM10 9H6V11H10V9ZM18 9H14V11H18V9ZM16.4684 14.7493L16.7177 13.7808L14.7808 13.2823L14.5316 14.2507C14.3566 14.9306 14.0629 15.3307 13.7101 15.5769C13.3431 15.8331 12.8008 16 12 16H11V18H12C13.063 18 14.0487 17.7795 14.8547 17.217C15.6749 16.6446 16.1994 15.7946 16.4684 14.7493Z"
        fill="black" />
</svg>