<svg width="24" height="24" viewBox="0 0 24 24" fill="none" xmlns="http://www.w3.org/2000/svg">
    <path
        d="M23 2H1V18H13V16C13 15.3015 13.1102 14.6287 13.3141 13.998H3V3.99805H21V9.67393C21.7204 9.8441 22.3945 10.1341 23 10.5218V2Z"
        fill="black" />
    <path d="M3 20H13V22H3V20Z" fill="black" />
    <path
        d="M22.7515 14.75V15.5H24V22H15V15.5H16.2515V14.75C16.2515 12.9551 17.7065 11.5 19.5015 11.5C21.2964 11.5 22.7515 12.9551 22.7515 14.75ZM20.7515 14.75C20.7515 14.0596 20.1918 13.5 19.5015 13.5C18.8111 13.5 18.2515 14.0596 18.2515 14.75V15.5H20.7515V14.75Z"
        fill="black" />
</svg>