<svg width="24" height="24" viewBox="0 0 24 24" fill="none" xmlns="http://www.w3.org/2000/svg">
    <path
        d="M12 23C5.92487 23 1 18.0751 1 12C1 5.92487 5.92487 1 12 1C18.0751 1 23 5.92487 23 12C23 18.0751 18.0751 23 12 23ZM10 9H6V11H10V9ZM18 9H14V11H18V9ZM12 13C10.1481 13 8.53256 14.0074 7.66955 15.4993L7.16882 16.3649L8.90004 17.3663L9.40076 16.5007C9.92099 15.6014 10.8909 15 12 15C13.1092 15 14.0791 15.6014 14.5993 16.5007L15.1 17.3663L16.8312 16.3649L16.3305 15.4993C15.4675 14.0074 13.852 13 12 13Z"
        fill="black" />
</svg>