<svg width="24" height="24" viewBox="0 0 24 24" fill="none" xmlns="http://www.w3.org/2000/svg">
    <path
        d="M11.5 2C8.46243 2 6 4.46243 6 7.5C6 10.5376 8.46243 13 11.5 13C14.5376 13 17 10.5376 17 7.5C17 4.46243 14.5376 2 11.5 2Z"
        fill="black" />
    <path
        d="M18.9837 12.9819L19.5863 13.7799C20.5044 14.9956 21.0008 16.4776 21.0003 18.0009C20.9998 19.5243 20.5023 21.0059 19.5834 22.221L18.9802 23.0185L17.385 21.8121L17.9882 21.0145C18.6446 20.1467 18.9999 19.0884 19.0003 18.0002C19.0007 16.9121 18.6461 15.8536 17.9903 14.9852L17.3877 14.1872L18.9837 12.9819Z"
        fill="black" />
    <path
        d="M16.1909 15.0911L16.7936 15.8891C17.2526 16.4969 17.5008 17.2379 17.5006 17.9996C17.5003 18.7613 17.2516 19.5021 16.7921 20.1096L16.1889 20.9072L14.5938 19.7007L15.197 18.9032C15.3939 18.6428 15.5005 18.3253 15.5006 17.9989C15.5007 17.6724 15.3943 17.3549 15.1976 17.0944L14.5949 16.2964L16.1909 15.0911Z"
        fill="black" />
    <path
        d="M12.8762 14C12.0139 15.103 11.5 16.4915 11.5 18C11.5 19.5085 12.0139 20.897 12.8762 22H2V20C2 16.6863 4.68629 14 8 14H12.8762Z"
        fill="black" />
</svg>