<svg width="24" height="24" viewBox="0 0 24 24" fill="none" xmlns="http://www.w3.org/2000/svg">
    <path
        d="M11.5 2C8.46243 2 6 4.46243 6 7.5C6 10.5376 8.46243 13 11.5 13C14.5376 13 17 10.5376 17 7.5C17 4.46243 14.5376 2 11.5 2Z"
        fill="black" />
    <path d="M14.382 13.5H21.618L23.6992 17.6624L18 23.9948L12.3008 17.6624L14.382 13.5Z" fill="black" />
    <path
        d="M12.2547 14C11.4638 15.1338 11 16.5128 11 18C11 19.4872 11.4638 20.8662 12.2547 22H2V20C2 16.6863 4.68629 14 8 14H12.2547Z"
        fill="black" />
</svg>