<svg width="24" height="24" viewBox="0 0 24 24" fill="none" xmlns="http://www.w3.org/2000/svg">
    <path
        d="M6 7.5C6 4.46243 8.46243 2 11.5 2C14.5376 2 17 4.46243 17 7.5C17 10.5376 14.5376 13 11.5 13C8.46243 13 6 10.5376 6 7.5ZM18 14C18.6904 14 19.25 14.5596 19.25 15.25V16H16.75V15.25C16.75 14.5596 17.3096 14 18 14ZM21.25 16V15.25C21.25 13.4551 19.7949 12 18 12C16.2051 12 14.75 13.4551 14.75 15.25V16H13.4985V22.5H22.4985V16H21.25ZM11.5 22H2V20C2 16.6863 4.68629 14 8 14H11.5V22Z"
        fill="black" />
</svg>